<svg width="96" height="96" viewBox="0 0 96 96" fill="none" xmlns="http://www.w3.org/2000/svg">
<rect width="96" height="96" rx="30" fill="url(#paint0_linear_0_505)"/>
<path d="M47.4602 71.6341C46.5004 70.9143 45.1207 71.0943 44.4008 72.054L44.2809 72.174C45.0007 71.2142 44.8208 69.8345 43.861 69.1147C42.9012 68.3948 41.5215 68.5748 40.8016 69.5346L40.3217 70.1345C41.0416 69.1747 40.8616 67.795 39.9018 67.0751C38.942 66.3553 37.5624 66.5353 36.8425 67.495L36.2426 68.2749C36.9625 67.3151 36.7825 65.9354 35.8227 65.2155C34.8629 64.4957 33.4833 64.6757 32.7634 65.6355L32.1635 66.5952C31.4437 67.555 31.6237 68.9347 32.5834 69.6546C33.5432 70.3744 34.9229 70.1944 35.6428 69.2347C34.9229 70.1944 35.1029 71.5741 36.0627 72.294C37.0225 73.0138 38.4022 72.8339 39.122 71.8741C38.4022 72.8339 38.5821 74.2136 39.5419 74.9334C40.5017 75.6532 41.8814 75.4733 42.6012 74.5135C41.8814 75.4733 42.0614 76.853 43.0212 77.5728C43.9809 78.2927 45.3606 78.1127 46.0805 77.1529L47.8801 74.7534C48.6599 73.7937 48.42 72.414 47.4602 71.6341Z" fill="white"/>
<path d="M64.6163 66.8951H64.3164L64.1364 67.0751C63.7165 67.435 63.1766 67.555 62.6367 67.555C62.0969 67.555 61.497 67.375 61.0771 66.9551L57.2379 63.5959L55.6783 62.2162L54.5385 61.2564L51.7791 58.8569C50.1595 58.6769 48.7798 58.0171 47.76 57.3572L46.9202 58.437C45.4205 60.3566 43.081 61.4963 40.6816 61.4963C39.7218 61.4963 38.822 61.3164 37.9222 61.0164L37.6822 60.8965C36.6025 60.4765 35.7627 59.6367 35.4027 58.557C35.0428 57.4772 35.1028 56.2775 35.7027 55.3177L41.8213 44.82L39.0019 44.0402C37.8022 43.8002 36.6025 44.3401 36.0626 45.3599L34.7429 47.9393L29.0441 47.5794L27.6044 59.9367L27.0046 65.3355L29.9439 65.5154C30.0039 65.3955 30.1239 65.2155 30.2439 65.0955L30.9037 64.1957C31.7435 63.056 33.1232 62.3961 34.5629 62.3961C35.5827 62.3961 36.5425 62.6961 37.3223 63.3559C37.6822 63.6558 37.9822 63.9558 38.2821 64.3157C38.4021 64.3157 38.522 64.3157 38.642 64.3157C39.6618 64.3157 40.6216 64.6156 41.4014 65.2755C41.8213 65.5754 42.1812 65.9953 42.4212 66.3552C42.4812 66.3552 42.4812 66.3552 42.5412 66.3552C43.5609 66.3552 44.5207 66.6552 45.3006 67.315C45.9004 67.7349 46.3203 68.3348 46.6203 68.9347C47.4601 69.0547 48.1799 69.3546 48.8998 69.8345C50.4594 70.9742 50.9993 72.9538 50.5794 74.6934C50.9393 74.9933 51.3592 75.1133 51.7791 75.1733C52.559 75.2933 53.3388 74.9933 53.9387 74.3335L55.6183 72.3539C55.9782 72.6539 56.4581 72.8938 56.938 72.9538C57.7178 73.0138 58.4976 72.7738 59.0975 72.114L60.7771 70.1344C61.7969 71.0342 63.3566 70.9142 64.1964 69.8945L64.6163 69.3546C65.2162 68.6347 65.2162 67.615 64.6163 66.8951Z" fill="white"/>
<path d="M67.0158 59.0969L65.5162 46.7396L62.6368 47.0995L58.4977 44.7601L57.118 43.9802C56.5181 43.6803 55.8583 43.5003 55.1984 43.5603C55.1984 43.5603 55.1984 43.5603 55.1385 43.5603L53.3388 43.7403L46.4404 44.4001H46.3804C46.2604 44.4001 46.2004 44.4001 46.0804 44.4601C46.0205 44.4601 46.0205 44.4601 45.9605 44.4601C45.8405 44.4601 45.7805 44.5201 45.6605 44.5201C45.6005 44.5201 45.6005 44.5201 45.5406 44.5801C45.4806 44.6401 45.3606 44.6401 45.3006 44.7001C45.2406 44.7001 45.2406 44.7601 45.1806 44.7601C45.1207 44.82 45.0607 44.82 44.9407 44.88C44.8807 44.88 44.8807 44.94 44.8207 44.94C44.7607 45 44.7007 45 44.6408 45.06C44.2808 45.2999 43.9809 45.6599 43.741 46.0798L37.6823 56.6374C37.2024 57.4173 37.5623 58.4371 38.4021 58.737L38.6421 58.857C40.9216 59.6968 43.441 58.9769 44.9407 57.0574L47.2802 53.998C47.2802 53.998 49.4997 56.5775 52.679 56.6374L56.0383 59.5168L57.178 60.4766L58.7976 61.7963L62.6968 65.1556L63.5366 64.4957H67.6757L67.0158 59.0969Z" fill="white"/>
<path d="M77.9934 66.1753L77.6935 63.5958C77.5735 63.8358 77.3335 63.9558 77.0336 64.0157L69.9552 64.9155C69.8352 64.9155 69.6552 64.9155 69.5353 64.9155C68.3355 64.9155 67.2558 64.2557 66.6559 63.2959L66.8958 65.2155C67.0758 66.8351 68.4555 68.0349 70.0751 68.0349C70.1951 68.0349 70.3151 68.0349 70.495 68.0349L77.2736 67.195C77.6935 67.0751 78.0534 66.6552 77.9934 66.1753Z" fill="white"/>
<path d="M18.0066 66.1753L18.3065 63.5958C18.4265 63.8358 18.6665 63.9558 18.9664 64.0157L26.0448 64.9155C26.1648 64.9155 26.3448 64.9155 26.4647 64.9155C27.6645 64.9155 28.7442 64.2557 29.3441 63.2959L29.1042 65.2155C28.9242 66.8351 27.5445 68.0349 25.9249 68.0349C25.8049 68.0349 25.6849 68.0349 25.505 68.0349L18.7864 67.1351C18.3065 67.0751 17.9466 66.6552 18.0066 66.1753Z" fill="white"/>
<path d="M77.9934 66.1753L75.114 42.6604C75.114 42.4205 74.9941 42.2405 74.7541 42.0606C74.5741 41.9406 74.3342 41.8806 74.0942 41.8806L67.3157 42.7204C65.5761 42.9604 64.3164 44.52 64.4964 46.3196L66.8358 65.2155C67.0158 66.8351 68.3955 68.0349 70.0151 68.0349C70.1351 68.0349 70.2551 68.0349 70.4351 68.0349L77.2136 67.1951C77.6935 67.0751 78.0534 66.6552 77.9934 66.1753ZM72.3546 64.0757C71.3948 64.0757 70.675 63.2959 70.675 62.3961C70.675 61.4963 71.4548 60.7165 72.3546 60.7165C73.2544 60.7165 74.0343 61.4963 74.0343 62.3961C74.0343 63.2959 73.3144 64.0757 72.3546 64.0757Z" fill="white"/>
<path d="M28.6843 42.7204L21.9057 41.8806C21.6658 41.8806 21.4258 41.9406 21.2459 42.0606C21.0659 42.1805 20.946 42.4205 20.886 42.6604L18.0066 66.1753C17.9466 66.6552 18.3065 67.0751 18.7864 67.1351L25.5649 67.9749C25.6849 67.9749 25.8049 67.9749 25.9848 67.9749C27.6045 67.9749 28.9842 66.7751 29.1641 65.1555L31.5036 46.2597C31.6836 44.52 30.4239 42.9004 28.6843 42.7204ZM23.5254 64.0757C22.5656 64.0757 21.8458 63.2959 21.8458 62.3961C21.8458 61.4963 22.6256 60.7165 23.5254 60.7165C24.4252 60.7165 25.205 61.4363 25.205 62.3961C25.205 63.3559 24.4852 64.0757 23.5254 64.0757Z" fill="white"/>
<path d="M40.2617 27.9038C40.0818 27.4239 39.7219 27.124 39.242 27.004L36.1226 26.5241L34.7429 23.7047C34.503 23.2848 34.0831 22.9849 33.6032 22.9849C33.1233 22.9849 32.6434 23.2848 32.4635 23.7047L31.0838 26.5241L27.9644 27.004C27.4845 27.064 27.0646 27.4239 26.9447 27.9038C26.7647 28.3837 26.9447 28.8636 27.2446 29.2235L29.5241 31.443L28.9842 34.5623C28.9242 35.0422 29.1042 35.5221 29.5241 35.822C29.764 36.002 30.004 36.062 30.3039 36.062C30.4839 36.062 30.7238 36.002 30.9038 35.942L33.7232 34.5023L36.5426 35.942C36.9625 36.182 37.5023 36.122 37.9222 35.822C38.3422 35.5221 38.5221 35.0422 38.4621 34.5623L37.9222 31.443L40.2017 29.2235C40.3217 28.8636 40.4417 28.3837 40.2617 27.9038Z" fill="white"/>
<path d="M54.7186 22.8648C54.5386 22.3849 54.1787 22.085 53.6988 21.965L50.5795 21.4851L49.1998 18.6657C48.9598 18.3058 48.4799 18.0059 48 18.0059C47.5201 18.0059 47.0403 18.3058 46.8603 18.7257L45.4806 21.5451L42.3613 22.025C41.8814 22.085 41.4615 22.4449 41.3415 22.9248C41.2215 23.4047 41.3415 23.8846 41.6414 24.2445L43.9209 26.464L43.3811 29.5833C43.3211 30.0632 43.501 30.5431 43.9209 30.843C44.3408 31.143 44.8207 31.143 45.3006 30.963L48 29.4034L50.8194 30.843C50.9994 30.963 51.2393 30.963 51.4193 30.963C51.6592 30.963 51.9592 30.903 52.1991 30.7231C52.619 30.4231 52.799 29.9432 52.739 29.4633L52.1391 26.404L54.4186 24.1845C54.7186 23.8246 54.8985 23.3447 54.7186 22.8648Z" fill="white"/>
<path d="M69.1154 27.9036C68.9355 27.4237 68.5756 27.1238 68.0957 27.0038L64.9763 26.5239L63.5966 23.7645C63.3567 23.3446 62.9368 23.0447 62.4569 23.0447C61.977 23.0447 61.4971 23.3446 61.3171 23.7645L59.9375 26.5839L56.8181 27.0638C56.3382 27.1238 55.9183 27.4837 55.7984 27.9636C55.6184 28.4435 55.7984 28.9234 56.0983 29.2833L58.3778 31.5028L57.8379 34.6221C57.7779 35.102 57.9579 35.5819 58.3778 35.8819C58.7977 36.1818 59.2776 36.1818 59.7575 36.0018L62.5769 34.5621L65.3963 36.0018C65.5762 36.1218 65.8162 36.1218 65.9961 36.1218C66.2361 36.1218 66.536 36.0618 66.776 35.8819C67.1959 35.5819 67.3758 35.102 67.3158 34.6221L66.776 31.5028L69.0554 29.2833C69.1754 28.8634 69.2954 28.3835 69.1154 27.9036Z" fill="white"/>
<defs>
<linearGradient id="paint0_linear_0_505" x1="48" y1="0" x2="48" y2="96" gradientUnits="userSpaceOnUse">
<stop stop-color="#FF4C86"/>
<stop offset="1" stop-color="#FF94B7"/>
</linearGradient>
</defs>
</svg>
