<svg width="20" height="20" viewBox="0 0 20 20" fill="none" xmlns="http://www.w3.org/2000/svg">
<g id="address">
<rect id="Rectangle 126" width="20" height="20" fill="white" fill-opacity="0.01"/>
<path id="Vector" d="M10 1C8.14416 1.00221 6.36495 1.74795 5.05268 3.07362C3.7404 4.39929 3.0022 6.19665 3.00001 8.07143C2.99778 9.6035 3.49318 11.094 4.41019 12.3143C4.41019 12.3143 4.6011 12.5682 4.63228 12.6049L10 19L15.3703 12.6016C15.3983 12.5676 15.5898 12.3143 15.5898 12.3143L15.5904 12.3124C16.507 11.0926 17.0022 9.6028 17 8.07143C16.9978 6.19665 16.2596 4.39929 14.9473 3.07362C13.635 1.74795 11.8558 1.00221 10 1ZM12.2909 11.2857L10 9.81293L7.70909 11.2857L8.09091 8.66671L6.18182 6.89693L8.85455 6.571L10 4.21429L11.2167 6.57164L13.8182 6.89693L11.9091 8.66671L12.2909 11.2857Z" fill="#693CDE"/>
</g>
</svg>
