<svg width="16" height="16" viewBox="0 0 16 16" fill="none" xmlns="http://www.w3.org/2000/svg">
<g id="calender" clip-path="url(#clip0_0_125)">
<path id="Vector" d="M13.6 2.3998H12.8V3.9998H10.4V2.3998H5.6V3.9998H3.2V2.3998H2.4C1.5192 2.3998 0.800003 3.1198 0.800003 3.9998V13.5998C0.800003 14.4798 1.5192 15.1998 2.4 15.1998H13.6C14.48 15.1998 15.2 14.4798 15.2 13.5998V3.9998C15.2 3.1198 14.48 2.3998 13.6 2.3998ZM13.6 13.5998H2.4V7.1998H13.6V13.5998ZM5.2 0.799805H3.6V3.5998H5.2V0.799805ZM12.4 0.799805H10.8V3.5998H12.4V0.799805Z" fill="#696477"/>
</g>
<defs>
<clipPath id="clip0_0_125">
<rect width="16" height="16" fill="white"/>
</clipPath>
</defs>
</svg>
