<svg width="57" height="44" viewBox="0 0 57 44" fill="none" xmlns="http://www.w3.org/2000/svg">
<path id="&#226;&#128;&#156;" d="M3.51475 44C1.17158 37.6276 0 31.2552 0 24.8828C0 17.4988 1.93566 11.531 5.80697 6.97931C9.78016 2.32644 15.5871 0 23.2279 0V10.7724C17.8284 10.7724 15.1287 14.3632 15.1287 21.5448V23.5172H25.3673V44H3.51475ZM35.1475 44C32.8043 37.931 31.6327 31.5586 31.6327 24.8828C31.6327 17.4988 33.5684 11.531 37.4397 6.97931C41.4129 2.32644 47.2198 0 54.8606 0V10.7724C49.3592 10.7724 46.6086 14.3632 46.6086 21.5448V23.5172H57V44H35.1475Z" fill="#693CDE"/>
</svg>
