<svg width="202" height="116" viewBox="0 0 202 116" fill="none" xmlns="http://www.w3.org/2000/svg">
<g id="data-analytics_1cju9 1">
<path id="Vector" d="M12.16 106.387C11.8185 106.388 11.4846 106.287 11.2004 106.098C10.9162 105.909 10.6944 105.639 10.5631 105.324C10.4318 105.009 10.3969 104.662 10.4627 104.327C10.5285 103.992 10.6922 103.684 10.933 103.442L70.65 43.237C70.9188 42.9666 71.2693 42.7925 71.6471 42.7415C72.025 42.6905 72.4091 42.7656 72.74 42.955L130.25 76.033L188.543 9.71301C188.691 9.53648 188.873 9.39134 189.078 9.28611C189.283 9.18089 189.507 9.11771 189.737 9.10029C189.967 9.08286 190.197 9.11155 190.416 9.18465C190.635 9.25776 190.836 9.37381 191.009 9.52599C191.182 9.67816 191.323 9.8634 191.424 10.0708C191.524 10.2782 191.582 10.5036 191.594 10.7337C191.606 10.9638 191.572 11.194 191.494 11.4108C191.416 11.6276 191.295 11.8266 191.139 11.996L131.912 79.376C131.649 79.6761 131.29 79.8759 130.896 79.9416C130.503 80.0072 130.098 79.9345 129.752 79.736L72.17 46.615L13.388 105.875C13.048 106.215 12.604 106.385 12.16 106.385V106.387Z" fill="black"/>
<path id="Vector_2" d="M12.16 114.272C14.7106 114.272 17.1567 113.259 18.9603 111.455C20.7638 109.652 21.777 107.206 21.777 104.655C21.777 99.343 17.472 95.041 12.161 95.041C6.85002 95.041 2.54602 99.344 2.54602 104.656C2.54602 109.966 6.85102 114.273 12.162 114.273" fill="#B2F9DA"/>
<path id="Vector_3" d="M12.16 116C5.90602 116 0.817017 110.91 0.817017 104.656C0.817017 98.402 5.90702 93.313 12.16 93.313C18.415 93.313 23.504 98.403 23.504 104.656C23.504 110.911 18.414 116 12.16 116ZM12.16 96.77C7.81202 96.77 4.27402 100.308 4.27402 104.656C4.27402 109.006 7.81202 112.543 12.16 112.543C16.51 112.543 20.047 109.005 20.047 104.656C20.047 100.308 16.509 96.77 12.16 96.77Z" fill="black"/>
<path id="Vector_4" d="M12.16 116C5.90602 116 0.817017 110.91 0.817017 104.656C0.817017 98.402 5.90702 93.313 12.16 93.313C18.415 93.313 23.504 98.403 23.504 104.656C23.504 110.911 18.414 116 12.16 116ZM12.16 96.77C7.81202 96.77 4.27402 100.308 4.27402 104.656C4.27402 109.006 7.81202 112.543 12.16 112.543C16.51 112.543 20.047 109.005 20.047 104.656C20.047 100.308 16.509 96.77 12.16 96.77Z" fill="black"/>
<path id="Vector_5" d="M71.876 54.0669C77.186 54.0669 81.492 49.7609 81.492 44.4499C81.492 39.1379 77.187 34.8359 71.876 34.8359C66.566 34.8359 62.26 39.1379 62.26 44.4499C62.26 49.7599 66.566 54.0669 71.876 54.0669Z" fill="#FFCE94"/>
<path id="Vector_6" d="M71.875 55.7961C65.621 55.7961 60.532 50.7061 60.532 44.4501C60.532 38.1961 65.622 33.1071 71.875 33.1071C78.13 33.1071 83.219 38.1971 83.219 44.4501C83.219 50.7071 78.129 55.7961 71.874 55.7961H71.875ZM71.875 36.5661C67.527 36.5661 63.989 40.1031 63.989 44.4511C63.989 48.8011 67.526 52.3411 71.874 52.3411C76.224 52.3411 79.761 48.8011 79.761 44.4511C79.761 40.1031 76.224 36.5661 71.874 36.5661H71.875Z" fill="black"/>
<path id="Vector_7" d="M71.875 55.7961C65.621 55.7961 60.532 50.7061 60.532 44.4501C60.532 38.1961 65.622 33.1071 71.875 33.1071C78.13 33.1071 83.219 38.1971 83.219 44.4501C83.219 50.7071 78.129 55.7961 71.874 55.7961H71.875ZM71.875 36.5661C67.527 36.5661 63.989 40.1031 63.989 44.4511C63.989 48.8011 67.526 52.3411 71.874 52.3411C76.224 52.3411 79.761 48.8011 79.761 44.4511C79.761 40.1031 76.224 36.5661 71.874 36.5661H71.875Z" fill="black"/>
<path id="Vector_8" d="M130.613 87.7C135.923 87.7 140.229 83.394 140.229 78.083C140.229 72.771 135.923 68.469 130.612 68.469C125.301 68.469 120.996 72.769 120.996 78.082C120.996 83.392 125.301 87.699 130.612 87.699" fill="white"/>
<path id="Vector_9" d="M130.614 89.4279C124.359 89.4279 119.27 84.3379 119.27 78.0819C119.27 71.8279 124.36 66.7419 130.614 66.7419C136.868 66.7419 141.957 71.8299 141.957 78.0839C141.957 84.3389 136.867 89.4279 130.614 89.4279ZM130.614 70.1979C126.264 70.1979 122.727 73.7339 122.727 78.0819C122.727 82.4319 126.265 85.9719 130.614 85.9719C134.962 85.9719 138.5 82.4319 138.5 78.0839C138.5 73.7339 134.962 70.1979 130.614 70.1979Z" fill="black"/>
<path id="Vector_10" d="M130.614 89.4279C124.359 89.4279 119.27 84.3379 119.27 78.0819C119.27 71.8279 124.36 66.7419 130.614 66.7419C136.868 66.7419 141.957 71.8299 141.957 78.0839C141.957 84.3389 136.867 89.4279 130.614 89.4279ZM130.614 70.1979C126.264 70.1979 122.727 73.7339 122.727 78.0819C122.727 82.4319 126.265 85.9719 130.614 85.9719C134.962 85.9719 138.5 82.4319 138.5 78.0839C138.5 73.7339 134.962 70.1979 130.614 70.1979Z" fill="black"/>
<path id="Vector_11" d="M189.84 20.96C195.15 20.96 199.456 16.653 199.456 11.342C199.456 6.03003 195.151 1.72803 189.84 1.72803C184.53 1.72803 180.224 6.03003 180.224 11.342C180.224 16.654 184.529 20.959 189.84 20.959" fill="white"/>
<path id="Vector_12" d="M189.84 22.69C183.585 22.69 178.496 17.6 178.496 11.343C178.496 5.09 183.586 0 189.84 0C196.094 0 201.183 5.09 201.183 11.343C201.183 17.6 196.093 22.689 189.84 22.689V22.69ZM189.84 3.457C185.49 3.457 181.953 6.995 181.953 11.343C181.953 15.693 185.491 19.233 189.84 19.233C194.188 19.233 197.726 15.693 197.726 11.343C197.726 6.995 194.188 3.457 189.84 3.457Z" fill="black"/>
<path id="Vector_13" d="M189.84 20.959C195.15 20.959 199.455 16.6542 199.455 11.344C199.455 6.03379 195.15 1.729 189.84 1.729C184.53 1.729 180.225 6.03379 180.225 11.344C180.225 16.6542 184.53 20.959 189.84 20.959Z" fill="#C1A9FF"/>
<path id="Vector_14" d="M189.84 22.69C183.585 22.69 178.496 17.6 178.496 11.343C178.496 5.09 183.586 0 189.84 0C196.094 0 201.183 5.09 201.183 11.343C201.183 17.6 196.093 22.689 189.84 22.689V22.69ZM189.84 3.457C185.49 3.457 181.953 6.995 181.953 11.343C181.953 15.693 185.491 19.233 189.84 19.233C194.188 19.233 197.726 15.693 197.726 11.343C197.726 6.995 194.188 3.457 189.84 3.457ZM160.716 79.975C160.489 79.9751 160.264 79.9305 160.055 79.8437C159.845 79.7569 159.654 79.6297 159.494 79.4692C159.333 79.3087 159.206 79.1181 159.119 78.9084C159.033 78.6987 158.988 78.474 158.988 78.247V73.062C158.988 72.6037 159.17 72.1642 159.494 71.8401C159.818 71.5161 160.258 71.334 160.716 71.334C161.174 71.334 161.614 71.5161 161.938 71.8401C162.262 72.1642 162.444 72.6037 162.444 73.062V78.247C162.444 79.202 161.671 79.975 160.716 79.975ZM160.716 60.963C160.489 60.9631 160.264 60.9185 160.055 60.8317C159.845 60.7449 159.654 60.6177 159.494 60.4572C159.333 60.2967 159.206 60.1061 159.119 59.8964C159.033 59.6867 158.988 59.462 158.988 59.235V54.05C158.988 53.5917 159.17 53.1522 159.494 52.8281C159.818 52.5041 160.258 52.322 160.716 52.322C161.174 52.322 161.614 52.5041 161.938 52.8281C162.262 53.1522 162.444 53.5917 162.444 54.05V59.235C162.444 60.19 161.671 60.963 160.716 60.963ZM160.716 41.951C160.489 41.9513 160.264 41.9068 160.055 41.8201C159.845 41.7334 159.654 41.6062 159.494 41.4458C159.333 41.2854 159.206 41.0949 159.119 40.8853C159.033 40.6756 158.988 40.4509 158.988 40.224V35.039C158.988 34.5807 159.17 34.1412 159.494 33.8171C159.818 33.4931 160.258 33.311 160.716 33.311C161.174 33.311 161.614 33.4931 161.938 33.8171C162.262 34.1412 162.444 34.5807 162.444 35.039V40.224C162.444 41.179 161.671 41.952 160.716 41.952V41.951ZM160.716 22.939C160.489 22.9391 160.264 22.8945 160.055 22.8077C159.845 22.7209 159.654 22.5937 159.494 22.4332C159.333 22.2727 159.206 22.0821 159.119 21.8724C159.033 21.6627 158.988 21.438 158.988 21.211V16.026C158.988 15.5677 159.17 15.1282 159.494 14.8041C159.818 14.4801 160.258 14.298 160.716 14.298C161.174 14.298 161.614 14.4801 161.938 14.8041C162.262 15.1282 162.444 15.5677 162.444 16.026V21.211C162.444 22.166 161.671 22.939 160.716 22.939ZM152.146 12.496H146.961C146.503 12.4959 146.063 12.3137 145.739 11.9895C145.415 11.6654 145.233 11.2258 145.234 10.7675C145.234 10.3092 145.416 9.86973 145.74 9.54577C146.064 9.2218 146.504 9.03987 146.962 9.04H152.148C152.606 9.04 153.046 9.222 153.37 9.54597C153.694 9.86994 153.876 10.3093 153.876 10.7675C153.876 11.2257 153.694 11.6651 153.37 11.989C153.046 12.313 152.606 12.495 152.148 12.495L152.146 12.496ZM133.134 12.496H127.949C127.491 12.496 127.051 12.3139 126.727 11.9899C126.403 11.6658 126.221 11.2263 126.221 10.768C126.221 10.3097 126.403 9.87018 126.727 9.54612C127.051 9.22206 127.491 9.04 127.949 9.04H133.133C133.591 9.04 134.031 9.222 134.355 9.54597C134.679 9.86994 134.861 10.3093 134.861 10.7675C134.861 11.2257 134.679 11.6651 134.355 11.989C134.031 12.313 133.591 12.495 133.133 12.495L133.134 12.496ZM114.122 12.496H108.937C108.479 12.4961 108.039 12.3142 107.715 11.9902C107.391 11.6663 107.209 11.2268 107.209 10.7685C107.208 10.3102 107.39 9.87063 107.714 9.54647C108.038 9.22232 108.478 9.04013 108.936 9.04H114.121C114.579 9.04 115.019 9.222 115.343 9.54597C115.667 9.86994 115.849 10.3093 115.849 10.7675C115.849 11.2257 115.667 11.6651 115.343 11.989C115.019 12.313 114.579 12.495 114.121 12.495L114.122 12.496ZM95.109 12.496H89.923C89.4647 12.496 89.0252 12.3139 88.7011 11.9899C88.3771 11.6658 88.195 11.2263 88.195 10.768C88.195 10.3097 88.3771 9.87018 88.7011 9.54612C89.0252 9.22206 89.4647 9.04 89.923 9.04H95.108C95.3349 9.04007 95.5595 9.08481 95.7691 9.17169C95.9786 9.25856 96.169 9.38587 96.3294 9.54633C96.4898 9.70679 96.617 9.89726 96.7037 10.1069C96.7905 10.3165 96.8351 10.5411 96.835 10.768C96.835 10.9949 96.7902 11.2195 96.7033 11.429C96.6165 11.6386 96.4892 11.829 96.3287 11.9894C96.1682 12.1497 95.9778 12.2769 95.7682 12.3637C95.5585 12.4504 95.3339 12.4951 95.107 12.495L95.109 12.496ZM76.096 12.496H70.911C70.4527 12.496 70.0132 12.3139 69.6891 11.9899C69.3651 11.6658 69.183 11.2263 69.183 10.768C69.183 10.3097 69.3651 9.87018 69.6891 9.54612C70.0132 9.22206 70.4527 9.04 70.911 9.04H76.096C76.5542 9.04 76.9936 9.222 77.3176 9.54597C77.6415 9.86994 77.8235 10.3093 77.8235 10.7675C77.8235 11.2257 77.6415 11.6651 77.3176 11.989C76.9936 12.313 76.5542 12.495 76.096 12.495V12.496ZM131.088 106.627H125.903C125.444 106.627 125.005 106.445 124.68 106.121C124.356 105.796 124.174 105.357 124.174 104.898C124.174 104.439 124.356 104 124.68 103.675C125.005 103.351 125.444 103.169 125.903 103.169H131.088C131.546 103.169 131.986 103.351 132.31 103.675C132.634 103.999 132.817 104.439 132.817 104.897C132.817 105.356 132.634 105.796 132.31 106.12C131.986 106.444 131.546 106.626 131.088 106.626V106.627ZM112.076 106.627H106.891C106.432 106.627 105.993 106.445 105.669 106.12C105.344 105.796 105.162 105.356 105.163 104.897C105.163 104.439 105.345 103.999 105.669 103.675C105.994 103.351 106.433 103.169 106.892 103.169H112.078C112.536 103.169 112.976 103.351 113.3 103.675C113.624 103.999 113.807 104.439 113.807 104.897C113.807 105.356 113.624 105.796 113.3 106.12C112.976 106.444 112.536 106.626 112.078 106.626L112.076 106.627ZM93.064 106.627H87.879C87.4205 106.627 86.9807 106.445 86.6564 106.121C86.3322 105.796 86.15 105.357 86.15 104.898C86.15 104.439 86.3322 104 86.6564 103.675C86.9807 103.351 87.4205 103.169 87.879 103.169H93.063C93.5215 103.169 93.9611 103.351 94.2853 103.675C94.6094 103.999 94.7915 104.439 94.7915 104.897C94.7915 105.356 94.6094 105.796 94.2853 106.12C93.9611 106.444 93.5215 106.626 93.063 106.626L93.064 106.627ZM74.051 106.625H68.867C68.4087 106.625 67.9692 106.443 67.6451 106.119C67.3211 105.795 67.139 105.355 67.139 104.897C67.139 104.439 67.3211 103.999 67.6451 103.675C67.9692 103.351 68.4087 103.169 68.867 103.169H74.052C74.5102 103.169 74.9496 103.351 75.2736 103.675C75.5975 103.999 75.7795 104.438 75.7795 104.896C75.7795 105.355 75.5975 105.794 75.2736 106.118C74.9496 106.442 74.5102 106.624 74.052 106.624L74.051 106.625ZM55.041 106.625H49.855C49.3967 106.625 48.9572 106.443 48.6331 106.119C48.3091 105.795 48.127 105.355 48.127 104.897C48.127 104.439 48.3091 103.999 48.6331 103.675C48.9572 103.351 49.3967 103.169 49.855 103.169H55.04C55.2669 103.169 55.4915 103.214 55.7011 103.301C55.9106 103.388 56.101 103.515 56.2614 103.675C56.4218 103.836 56.549 104.026 56.6357 104.236C56.7225 104.445 56.7671 104.67 56.767 104.897C56.767 105.124 56.7222 105.348 56.6353 105.558C56.5485 105.768 56.4212 105.958 56.2607 106.118C56.1002 106.279 55.9098 106.406 55.7002 106.493C55.4905 106.579 55.2659 106.624 55.039 106.624L55.041 106.625ZM41.285 101.368C41.0581 101.368 40.8333 101.324 40.6236 101.237C40.4139 101.15 40.2233 101.023 40.0629 100.862C39.9024 100.702 39.7751 100.511 39.6883 100.301C39.6015 100.092 39.5569 99.867 39.557 99.64V94.455C39.557 93.9967 39.7391 93.5572 40.0631 93.2331C40.3872 92.909 40.8267 92.727 41.285 92.727C41.7433 92.727 42.1828 92.909 42.5069 93.2331C42.831 93.5572 43.013 93.9967 43.013 94.455V99.64C43.013 100.595 42.241 101.368 41.285 101.368ZM41.285 82.355C41.0581 82.3551 40.8333 82.3105 40.6236 82.2237C40.4139 82.1369 40.2233 82.0097 40.0629 81.8492C39.9024 81.6887 39.7751 81.4981 39.6883 81.2884C39.6015 81.0787 39.5569 80.854 39.557 80.627V75.442C39.557 74.9837 39.7391 74.5442 40.0631 74.2201C40.3872 73.8961 40.8267 73.714 41.285 73.714C41.7433 73.714 42.1828 73.8961 42.5069 74.2201C42.831 74.5442 43.013 74.9837 43.013 75.442V80.627C43.013 81.582 42.241 82.355 41.285 82.355ZM41.285 63.343C41.0581 63.3431 40.8333 63.2985 40.6236 63.2117C40.4139 63.1249 40.2233 62.9977 40.0629 62.8372C39.9024 62.6767 39.7751 62.4861 39.6883 62.2764C39.6015 62.0667 39.5569 61.842 39.557 61.615V56.43C39.557 55.9717 39.7391 55.5322 40.0631 55.2081C40.3872 54.8841 40.8267 54.702 41.285 54.702C41.7433 54.702 42.1828 54.8841 42.5069 55.2081C42.831 55.5322 43.013 55.9717 43.013 56.43V61.615C43.013 62.57 42.241 63.343 41.285 63.343ZM41.285 44.331C41.0581 44.3313 40.8334 44.2868 40.6237 44.2001C40.414 44.1134 40.2234 43.9862 40.0629 43.8258C39.9024 43.6654 39.7751 43.4749 39.6883 43.2653C39.6015 43.0556 39.5569 42.8309 39.557 42.604V37.419C39.557 36.9607 39.7391 36.5212 40.0631 36.1971C40.3872 35.8731 40.8267 35.691 41.285 35.691C41.7433 35.691 42.1828 35.8731 42.5069 36.1971C42.831 36.5212 43.013 36.9607 43.013 37.419V42.604C43.013 43.559 42.241 44.332 41.285 44.332V44.331ZM41.284 29.32C41.0571 29.3201 40.8323 29.2755 40.6226 29.1887C40.4129 29.1019 40.2223 28.9747 40.0619 28.8142C39.9014 28.6537 39.7741 28.4631 39.6873 28.2534C39.6005 28.0437 39.5559 27.819 39.556 27.592V10.767C39.556 9.812 40.329 9.039 41.284 9.039H58.11C58.5682 9.039 59.0076 9.221 59.3316 9.54497C59.6555 9.86894 59.8375 10.3083 59.8375 10.7665C59.8375 11.2247 59.6555 11.6641 59.3316 11.988C59.0076 12.312 58.5682 12.494 58.11 12.494H43.014V27.59C43.014 28.547 42.241 29.32 41.284 29.32ZM160.716 106.502H143.89C143.432 106.502 142.992 106.32 142.668 105.996C142.344 105.672 142.162 105.232 142.162 104.774C142.162 104.316 142.344 103.876 142.668 103.552C142.992 103.228 143.432 103.046 143.89 103.046H158.987V87.946C158.987 86.992 159.76 86.219 160.715 86.219C161.67 86.219 162.443 86.991 162.443 87.946V104.773C162.443 105.728 161.671 106.501 160.716 106.501V106.502Z" fill="black"/>
</g>
</svg>
