<svg width="170" height="116" viewBox="0 0 170 116" fill="none" xmlns="http://www.w3.org/2000/svg">
<g id="data-science-immersive_4mbRh 1">
<path id="Vector" d="M38.3 109.9H30.5C28.4 109.9 26.7001 108.2 26.7001 106.1V101.1C26.7001 100.8 26.2 100.1 25.8 99.9L23.6 99C23.1 98.7 22.2001 98.8 22 99.2L18.4 102.8C16.8 104.4 14.4 104.4 12.9 102.8L7.40005 97.3C5.80005 95.7 5.80005 93.3 7.40005 91.8L11 88.2C11.3 87.9 11.3 87.2 11.2 86.8L10.3 84.4C10.1 83.9 9.60005 83.4 9.10005 83.4H4.10005C2.00005 83.4 0.300049 81.7 0.300049 79.6V71.8C0.300049 69.7 2.00005 68 4.10005 68H9.10005C9.40005 68 10.1 67.5 10.3 67.1L11.2 64.8C11.5 64.3 11.4 63.4 11 63.2L7.40005 59.6C5.80005 58 5.80005 55.6 7.40005 54.1L12.9 48.6C14.5 47 16.9 47 18.4 48.6L22 52.2C22.3 52.5 23 52.5 23.4 52.4L26.2001 51.4H26.4C26.9 51.2 27.3 50.7 27.3 50.4V45.4C27.3 43.3 29 41.6 31.1 41.6H38.9C41 41.6 42.7001 43.3 42.7001 45.4V50.4C42.7001 50.7 43.2 51.4 43.6 51.6L45.9 52.5C46.4 52.8 47.3 52.7 47.5 52.3L51.1 48.7C52.7 47.1 55.1 47.1 56.6 48.7L62.1 54.2C63.7 55.8 63.7 58.2 62.1 59.7L58.5 63.3C58.2001 63.6 58.2001 64.3 58.3 64.7L59.1 67C59.3 67.5 59.8 68 60.3 68H65.3C66.3 68 67.4001 68.5 68.1001 69.4C68.6001 70.3 69 71.1 68.8 72.2V79.8C68.8 81.9 67.1001 83.6 65.0001 83.6H60C59.7001 83.6 59 84.1 58.8 84.5L57.9 86.8C57.6 87.3 57.7 88.2 58.1 88.4L61.7 92C63.3 93.6 63.3 96 61.7 97.5L56.1 103C54.5 104.6 52.1 104.6 50.6 103L47 99.4C46.7001 99.1 46 99.1 45.6 99.2L43.2001 100.1C42.7001 100.3 42.2001 100.8 42.2001 101.3V106.3C42.1001 108.2 40.4 109.9 38.3 109.9ZM22.7 95.4C23.4 95.4 24.1 95.6 24.8 95.9L26.9 96.8C28.6 97.3 30 99.4 30 101.1V106.1C30 106.3 30.2 106.4 30.3 106.4H38.1C38.3 106.4 38.4 106.2 38.4 106.1V101.1C38.4 99 39.8 97.3 41.7001 96.6L43.8 95.7C45.4 94.8 47.8 95.2 49.2 96.6L52.8 100.2C53 100.4 53.3 100.4 53.5 100.2L59 94.7C59.2001 94.5 59.2001 94.2 59 94L55.4 90.4C54 89 53.7001 86.8 54.5 84.9L55.4 82.8C55.9 81.1 58 79.7 59.7 79.7H64.7001C64.9 79.7 65.0001 79.5 65.0001 79.4V71.1H60C57.9001 71.1 56.2001 69.7 55.5 67.8L54.6 65.7C53.7 64.1 54.1 61.7 55.5 60.3L59.1 56.7C59.3 56.5 59.3 56.2 59.1 56L53.6 50.5C53.4 50.3 53.1 50.3 52.9 50.5L49.3 54.1C47.9 55.5 45.7001 55.8 43.8 55L41.7001 54.1C40.1001 53.6 38.6 51.8 38.6 49.8V44.8C38.6 44.6 38.4 44.5 38.3 44.5H30.5C30.3 44.5 30.2001 44.7 30.2001 44.8V49.8C30.2001 51.7 28.8 53.6 26.9 54.1L24.3 55.1C22.7 56 20.3 55.6 18.9 54.2L15.3 50.6C15.1 50.4 14.8 50.4 14.6 50.6L9.10005 56.1C8.90005 56.3 8.90005 56.6 9.10005 56.8L12.7 60.4C14.1 61.8 14.4 64 13.6 65.9L12.7 68C12.2 69.7 10.1 71.1 8.40005 71.1H3.40005C3.20005 71.1 3.10005 71.3 3.10005 71.4V79.2C3.10005 79.4 3.30005 79.5 3.40005 79.5H8.40005C10.5 79.5 12.2 80.9 12.9 82.8L13.8 84.9C14.7 86.5 14.3 88.9 12.9 90.3L9.30005 93.9C9.10005 94.1 9.10005 94.4 9.30005 94.6L14.8 100.1C15 100.3 15.3 100.3 15.5 100.1L19.1 96.5C20.3 95.9 21.5 95.4 22.7 95.4Z" fill="#1F1733"/>
<path id="Vector_2" d="M65.3 69.4H60.3C59.1 69.4 57.9 68.5 57.5 67.3L56.6 65C56.1 64 56.3 62.4 57.1 61.5L60.7 57.9C61.6 57 61.6 55.6 60.7 54.8L55.2 49.3C54.3 48.4 52.9 48.4 52.1 49.3L48.5 52.9C47.6 53.8 46.1 53.9 45 53.4L42.7 52.5C41.7 52.2 40.6 50.9 40.6 49.7V44.7C40.6 43.5 39.6 42.6 38.5 42.6H30.7C29.5 42.6 28.6 43.6 28.6 44.7V49.7C28.6 50.9 27.7 52.1 26.5 52.5L23.9 53.5C22.9 54 21.3 53.8 20.4 53L16.8 49.4C15.9 48.5 14.5 48.5 13.7 49.4L8.2 54.9C7.3 55.8 7.3 57.2 8.2 58L11.8 61.6C12.7 62.5 12.8 64 12.3 65.1L11.4 67.4C11.1 68.4 9.7 69.5 8.6 69.5H3.6C2.4 69.5 1.5 70.5 1.5 71.6V79.4C1.5 80.6 2.5 81.5 3.6 81.5H8.6C9.8 81.5 11 82.4 11.4 83.6L12.3 85.9C12.8 86.9 12.6 88.5 11.8 89.4L8.2 93C7.3 93.9 7.3 95.3 8.2 96.1L13.7 101.6C14.6 102.5 16 102.5 16.8 101.6L20.4 98C21.3 97.1 22.8 97 23.9 97.5L26.2 98.4C27.2 98.7 28.3 100.1 28.3 101.2V106.2C28.3 107.4 29.3 108.3 30.4 108.3H38.2C39.4 108.3 40.3 107.3 40.3 106.2V101.2C40.3 100 41.2 98.8 42.4 98.4L44.7 97.5C45.7 97 47.3 97.2 48.2 98L51.8 101.6C52.7 102.5 54.1 102.5 54.9 101.6L60.4 96.1C61.3 95.2 61.3 93.8 60.4 93L56.8 89.4C55.9 88.5 55.8 87 56.3 85.9L57.2 83.6C57.5 82.6 58.9 81.5 60 81.5H65C66.2 81.5 67.1 80.5 67.1 79.4V71.6C67.4 70.5 66.4 69.4 65.3 69.4Z" fill="#C1A9FF"/>
<path id="Vector_3" d="M38.3 109.9H30.5C28.4 109.9 26.7001 108.2 26.7001 106.1V101.1C26.7001 100.8 26.2 100.1 25.8 99.9L23.6 99C23.1 98.7 22.2001 98.8 22 99.2L18.4 102.8C16.8 104.4 14.4 104.4 12.9 102.8L7.40005 97.3C5.80005 95.7 5.80005 93.3 7.40005 91.8L11 88.2C11.3 87.9 11.3 87.2 11.2 86.8L10.3 84.4C10.1 83.9 9.60005 83.4 9.10005 83.4H4.10005C2.00005 83.4 0.300049 81.7 0.300049 79.6V71.8C0.300049 69.7 2.00005 68 4.10005 68H9.10005C9.40005 68 10.1 67.5 10.3 67.1L11.2 64.8C11.5 64.3 11.4 63.4 11 63.2L7.40005 59.6C5.80005 58 5.80005 55.6 7.40005 54.1L12.9 48.6C14.5 47 16.9 47 18.4 48.6L22 52.2C22.3 52.5 23 52.5 23.4 52.4L26.2001 51.4H26.4C26.9 51.2 27.3 50.7 27.3 50.4V45.4C27.3 43.3 29 41.6 31.1 41.6H38.9C41 41.6 42.7001 43.3 42.7001 45.4V50.4C42.7001 50.7 43.2 51.4 43.6 51.6L45.9 52.5C46.4 52.8 47.3 52.7 47.5 52.3L51.1 48.7C52.7 47.1 55.1 47.1 56.6 48.7L62.1 54.2C63.7 55.8 63.7 58.2 62.1 59.7L58.5 63.3C58.2001 63.6 58.2001 64.3 58.3 64.7L59.1 67C59.3 67.5 59.8 68 60.3 68H65.3C66.3 68 67.4001 68.5 68.1001 69.4C68.6001 70.3 69 71.1 68.8 72.2V79.8C68.8 81.9 67.1001 83.6 65.0001 83.6H60C59.7001 83.6 59 84.1 58.8 84.5L57.9 86.8C57.6 87.3 57.7 88.2 58.1 88.4L61.7 92C63.3 93.6 63.3 96 61.7 97.5L56.1 103C54.5 104.6 52.1 104.6 50.6 103L47 99.4C46.7001 99.1 46 99.1 45.6 99.2L43.2001 100.1C42.7001 100.3 42.2001 100.8 42.2001 101.3V106.3C42.1001 108.2 40.4 109.9 38.3 109.9ZM22.7 95.4C23.4 95.4 24.1 95.6 24.8 95.9L26.9 96.8C28.6 97.3 30 99.4 30 101.1V106.1C30 106.3 30.2 106.4 30.3 106.4H38.1C38.3 106.4 38.4 106.2 38.4 106.1V101.1C38.4 99 39.8 97.3 41.7001 96.6L43.8 95.7C45.4 94.8 47.8 95.2 49.2 96.6L52.8 100.2C53 100.4 53.3 100.4 53.5 100.2L59 94.7C59.2001 94.5 59.2001 94.2 59 94L55.4 90.4C54 89 53.7001 86.8 54.5 84.9L55.4 82.8C55.9 81.1 58 79.7 59.7 79.7H64.7001C64.9 79.7 65.0001 79.5 65.0001 79.4V71.1H60C57.9001 71.1 56.2001 69.7 55.5 67.8L54.6 65.7C53.7 64.1 54.1 61.7 55.5 60.3L59.1 56.7C59.3 56.5 59.3 56.2 59.1 56L53.6 50.5C53.4 50.3 53.1 50.3 52.9 50.5L49.3 54.1C47.9 55.5 45.7001 55.8 43.8 55L41.7001 54.1C40.1001 53.6 38.6 51.8 38.6 49.8V44.8C38.6 44.6 38.4 44.5 38.3 44.5H30.5C30.3 44.5 30.2001 44.7 30.2001 44.8V49.8C30.2001 51.7 28.8 53.6 26.9 54.1L24.3 55.1C22.7 56 20.3 55.6 18.9 54.2L15.3 50.6C15.1 50.4 14.8 50.4 14.6 50.6L9.10005 56.1C8.90005 56.3 8.90005 56.6 9.10005 56.8L12.7 60.4C14.1 61.8 14.4 64 13.6 65.9L12.7 68C12.2 69.7 10.1 71.1 8.40005 71.1H3.40005C3.20005 71.1 3.10005 71.3 3.10005 71.4V79.2C3.10005 79.4 3.30005 79.5 3.40005 79.5H8.40005C10.5 79.5 12.2 80.9 12.9 82.8L13.8 84.9C14.7 86.5 14.3 88.9 12.9 90.3L9.30005 93.9C9.10005 94.1 9.10005 94.4 9.30005 94.6L14.8 100.1C15 100.3 15.3 100.3 15.5 100.1L19.1 96.5C20.3 95.9 21.5 95.4 22.7 95.4Z" fill="#1F1733"/>
<path id="Vector_4" d="M34.5001 85.9C40.2439 85.9 44.9001 81.2437 44.9001 75.5C44.9001 69.7562 40.2439 65.1 34.5001 65.1C28.7563 65.1 24.1001 69.7562 24.1001 75.5C24.1001 81.2437 28.7563 85.9 34.5001 85.9Z" fill="white"/>
<path id="Vector_5" d="M34.5 87.6C27.7 87.6 22.4 82.2 22.4 75.5C22.4 68.8 27.8 63.4 34.5 63.4C41.2 63.4 46.6 68.8 46.6 75.5C46.6 82.2 41.2 87.6 34.5 87.6ZM34.5 66.8C29.7 66.8 25.8 70.6 25.8 75.5C25.8 80.4 29.6 84.2 34.5 84.2C39.4 84.2 43.2 80.4 43.2 75.5C43.2 70.6 39.3 66.8 34.5 66.8Z" fill="#1F1733"/>
<path id="Vector_6" d="M117.1 114.1H88.9L91.6 84.5H114.1L117.1 114.1Z" fill="white"/>
<path id="Vector_7" d="M117.1 115.8H88.9001C88.4001 115.8 88.0001 115.6 87.7001 115.3C87.4001 115 87.2001 114.4 87.2001 113.9L90.0001 84.2999C90.0001 83.3999 90.9001 82.7 91.7001 82.7H114.1C115 82.7 115.7 83.3999 115.8 84.2999L118.7 113.9C118.7 114.4 118.5 114.9 118.2 115.3C118.1 115.7 117.6 115.8 117.1 115.8ZM90.8001 112.4H115.2L112.6 86.2999H93.2001L90.8001 112.4Z" fill="#1F1733"/>
<path id="Vector_8" d="M130.1 116H75.7C74.7 116 74 115.3 74 114.3C74 113.3 74.7 112.6 75.7 112.6H130.1C131.1 112.6 131.8 113.3 131.8 114.3C131.8 115.3 131.1 116 130.1 116Z" fill="#1F1733"/>
<path id="Vector_9" d="M35.2001 1.69995H168.2V91.3999H35.2001V1.69995Z" fill="white"/>
<path id="Vector_10" d="M168.2 93.1H35.2C34.2 93.1 33.5 92.4 33.5 91.4V1.7C33.5 0.699997 34.2 0 35.2 0H168.2C169.2 0 169.9 0.699997 169.9 1.7V91.4C169.9 92.5 169.2 93.1 168.2 93.1ZM36.9 89.7H166.4V3.5H36.9V89.7Z" fill="#1F1733"/>
<path id="Vector_11" d="M160.4 83.6001H42.8V9.30005H160.5L160.4 83.6001Z" fill="white"/>
<path id="Vector_12" d="M160.4 85.3999H42.8001C41.8001 85.3999 41.1001 84.7 41.1001 83.7V9.39995C41.1001 8.39995 41.8001 7.69995 42.8001 7.69995H160.5C161 7.69995 161.4 7.89995 161.7 8.19995C162 8.49995 162.2 8.89995 162.2 9.39995L162 83.7C162.1 84.7 161.4 85.3999 160.4 85.3999ZM44.5001 81.8999H158.6L158.8 11.1H44.5001V81.8999Z" fill="#1F1733"/>
<path id="Vector_13" d="M60.8 48.3H67V74.4001H60.8V48.3Z" fill="#B2F9DA"/>
<path id="Vector_14" d="M67.0001 76.2H60.8001C59.8001 76.2 59.1001 75.4999 59.1001 74.4999V48.3999C59.1001 47.3999 59.8001 46.7 60.8001 46.7H67.0001C68.0001 46.7 68.7001 47.3999 68.7001 48.3999V74.4999C68.8001 75.4999 68.1001 76.2 67.0001 76.2ZM62.5001 72.7H65.3001V49.9999H62.5001V72.7Z" fill="#1F1733"/>
<path id="Vector_15" d="M72.9 30.6H79.1V74.6H72.9V30.6Z" fill="#B2F9DA"/>
<path id="Vector_16" d="M79.2 76.4H73C72 76.4 71.3 75.7 71.3 74.7V30.7C71.3 29.7 72 29 73 29H79.2C80.2 29 80.9001 29.7 80.9001 30.7V74.7C80.9001 75.7 80.2 76.4 79.2 76.4ZM74.7 72.9H77.5V32.4H74.7V72.9Z" fill="#1F1733"/>
<path id="Vector_17" d="M84.7001 42.4H90.9001V74.3H84.7001V42.4Z" fill="#B2F9DA"/>
<path id="Vector_18" d="M90.9 75.9999H84.7C83.7 75.9999 83 75.2999 83 74.2999V42.3999C83 41.3999 83.7 40.7 84.7 40.7H90.9C91.9 40.7 92.6 41.3999 92.6 42.3999V74.2999C92.7 75.2999 92 75.9999 90.9 75.9999ZM86.4 72.4999H89.2V44.0999H86.4V72.4999Z" fill="#1F1733"/>
<path id="Vector_19" d="M132.7 54.9H132.5C131.6 54.7 130.9 53.9 130.9 53L133.3 31.2L105.4 35.4C104.5 35.6 103.5 34.9 103.5 34C103.3 33.1 104 32.1 104.9 32.1L135 27.6C135.5 27.6 136 27.8 136.4 28.1C136.8 28.4 136.9 29 136.9 29.5L134.3 53.6C134.2 54.2 133.5 54.9 132.7 54.9Z" fill="#1F1733"/>
<path id="Vector_20" d="M137 53.2001C135.3 49.2001 130.6 47.3001 126.4 49.2001C122.4 50.9001 120.5 55.6 122.4 59.8C124.1 63.8 128.8 65.7001 133 63.8C137 61.8 138.9 57.1001 137 53.2001Z" fill="#FFCE94"/>
<path id="Vector_21" d="M129.7 66.0999C128.5 66.0999 127.4 65.8999 126.2 65.3999C123.8 64.4999 121.9 62.5999 120.8 60.1999C119.8 57.7999 119.6 55.1999 120.6 52.7999C121.5 50.3999 123.4 48.4999 125.8 47.3999C128.2 46.3999 130.8 46.1999 133.2 47.1999C135.6 48.0999 137.5 49.9999 138.6 52.1999C139.7 54.3999 139.8 57.1999 138.8 59.5999C137.9 61.9999 136 63.8999 133.8 64.9999C132.5 65.9999 131.1 66.0999 129.7 66.0999ZM129.7 50.1999C128.8 50.1999 128 50.3999 127.1 50.6999C125.5 51.3999 124.3 52.5999 123.8 54.1999C123.3 55.7999 123.3 57.4999 124 58.9999C124.7 60.5999 125.9 61.7999 127.5 62.2999C129.1 62.7999 130.8 62.7999 132.3 62.0999C133.9 61.3999 135.1 59.9999 135.6 58.4999C136.1 56.8999 136.1 55.1999 135.4 53.7999C134.7 52.1999 133.5 50.9999 131.9 50.4999C131.3 50.1999 130.6 50.1999 129.7 50.1999Z" fill="#1F1733"/>
<path id="Vector_22" d="M142.4 26C140.7 22 136 20.1 131.8 22C127.8 23.7 125.9 28.4 127.8 32.6C129.5 36.6 134.2 38.5 138.4 36.6C142.4 34.6 144.3 30 142.4 26Z" fill="#FFCE94"/>
<path id="Vector_23" d="M135.1 39C133.9 39 132.8 38.7999 131.6 38.2999C129.2 37.3999 127.3 35.5 126.2 33.1C125.2 30.7 125 28.0999 126 25.6999C126.9 23.2999 128.8 21.4 131.2 20.3C133.6 19.3 136.2 19.1 138.6 20.1C141 21 142.9 22.9 144 25.1C146.3 29.8 144.2 35.6999 139.2 37.8999C137.9 38.7999 136.5 39 135.1 39ZM135.1 23C134.2 23 133.4 23.2 132.5 23.5C130.9 24.2 129.7 25.4 129.2 27C128.7 28.6 128.7 30.3 129.4 31.8C130.1 33.3 131.3 34.6 132.9 35.1C134.5 35.6 136.2 35.5999 137.7 34.8999C140.8 33.2999 142.4 29.7 140.8 26.6C140.1 25 138.9 23.8 137.3 23.3C136.6 23 136 23 135.1 23Z" fill="#1F1733"/>
<path id="Vector_24" d="M135.1 39C129.7 39 125.4 34.7 125.4 29.3C125.4 23.9 129.7 19.6 135.1 19.6C140.5 19.6 144.8 23.9 144.8 29.3C144.8 34.7 140.5 39 135.1 39ZM135.1 23C131.6 23 128.9 25.8 128.9 29.2C128.9 32.6 131.7 35.4 135.1 35.4C138.5 35.4 141.3 32.6 141.3 29.2C141.3 25.8 138.5 23 135.1 23Z" fill="#1F1733"/>
<path id="Vector_25" d="M105.1 40.2C109.518 40.2 113.1 36.6182 113.1 32.2C113.1 27.7817 109.518 24.2 105.1 24.2C100.682 24.2 97.1001 27.7817 97.1001 32.2C97.1001 36.6182 100.682 40.2 105.1 40.2Z" fill="#FFCE94"/>
<path id="Vector_26" d="M105.1 41.9C99.7 41.9 95.4 37.6 95.4 32.2C95.4 26.8 99.7 22.5 105.1 22.5C110.5 22.5 114.8 26.8 114.8 32.2C114.8 37.6 110.5 41.9 105.1 41.9ZM105.1 26C101.6 26 98.9 28.8 98.9 32.2C98.9 35.7 101.7 38.4 105.1 38.4C108.5 38.4 111.3 35.6 111.3 32.2C111.4 28.7 108.6 26 105.1 26Z" fill="#1F1733"/>
</g>
</svg>
