<svg width="230" height="116" viewBox="0 0 230 116" fill="none" xmlns="http://www.w3.org/2000/svg">
<g id="front-end-web-development_3dKB4 1">
<path id="Vector" d="M176.492 116H137.948C137.49 116 137.051 115.818 136.728 115.495C136.404 115.171 136.223 114.732 136.223 114.275C136.223 113.817 136.404 113.379 136.728 113.055C137.051 112.732 137.49 112.55 137.948 112.55H176.492C176.949 112.55 177.388 112.732 177.711 113.056C178.035 113.379 178.216 113.818 178.216 114.275C178.216 114.733 178.034 115.172 177.711 115.495C177.387 115.819 176.948 116 176.491 116H176.492ZM227.692 116H189.148C188.69 116 188.251 115.819 187.928 115.495C187.604 115.172 187.422 114.733 187.422 114.275C187.422 113.818 187.604 113.379 187.927 113.056C188.25 112.732 188.689 112.55 189.147 112.55H227.691C228.148 112.55 228.587 112.732 228.91 113.056C229.234 113.379 229.415 113.818 229.415 114.275C229.415 114.733 229.233 115.172 228.91 115.495C228.586 115.819 228.147 116 227.69 116H227.692Z" fill="black"/>
<path id="Vector_2" d="M189.312 28.492H176.462L174.072 35.245H166.286L178.806 1.995H187.389L199.769 35.245H191.704L189.314 28.492H189.312ZM178.902 21.738H186.967L182.98 10.248L178.9 21.738H178.902Z" fill="#C1A9FF"/>
<path id="Vector_3" d="M199.768 36.97H191.704C190.974 36.97 190.322 36.51 190.077 35.82L188.092 30.216H177.68L175.696 35.821C175.576 36.1575 175.356 36.4488 175.064 36.6548C174.773 36.8607 174.425 36.9712 174.068 36.971H166.282C166.003 36.9712 165.728 36.9037 165.481 36.7742C165.233 36.6448 165.021 36.4573 164.863 36.2278C164.704 35.9984 164.603 35.7339 164.569 35.457C164.535 35.18 164.569 34.899 164.668 34.638L177.188 1.39C177.446 0.716 178.088 0.27 178.808 0.27H187.39C188.11 0.27 188.755 0.718 189.006 1.394L201.386 34.642C201.484 34.9026 201.517 35.1832 201.482 35.4595C201.448 35.7358 201.347 35.9996 201.188 36.2283C201.029 36.4569 200.817 36.6436 200.57 36.7723C200.324 36.901 200.049 36.9678 199.771 36.967L199.768 36.97ZM192.922 33.52H197.285L186.19 3.72H180L168.78 33.52H172.852L174.836 27.914C175.08 27.224 175.731 26.764 176.463 26.764H189.313C190.043 26.764 190.695 27.224 190.94 27.914L192.922 33.519V33.52ZM186.967 23.464H178.899C178.623 23.4637 178.351 23.3972 178.106 23.27C177.861 23.1429 177.65 22.9589 177.491 22.7334C177.331 22.5079 177.229 22.2475 177.191 21.9741C177.153 21.7007 177.182 21.4222 177.274 21.162L181.354 9.672C181.474 9.33657 181.694 9.04642 181.986 8.84127C182.277 8.63612 182.624 8.52601 182.981 8.526H182.988C183.345 8.52736 183.693 8.63969 183.984 8.84748C184.275 9.05527 184.494 9.34827 184.612 9.686L188.598 21.174C188.687 21.434 188.714 21.7118 188.675 21.9841C188.635 22.2564 188.532 22.5155 188.372 22.7396C188.213 22.9637 188.002 23.1465 187.757 23.2727C187.513 23.3989 187.242 23.4648 186.967 23.465V23.464ZM181.343 20.014H184.543L182.961 15.457L181.343 20.014ZM122.46 115.892C122.002 115.892 121.563 115.71 121.24 115.387C120.916 115.063 120.735 114.624 120.735 114.167V1.725C120.735 1.2675 120.916 0.828741 121.24 0.505241C121.563 0.181741 122.002 0 122.46 0C122.917 0 123.356 0.181741 123.679 0.505241C124.003 0.828741 124.185 1.2675 124.185 1.725V114.167C124.185 115.121 123.413 115.892 122.46 115.892Z" fill="black"/>
<path id="Vector_4" d="M137.948 61.1801H227.545V88.3581H137.948V61.1801Z" fill="#FFCE94"/>
<path id="Vector_5" d="M227.545 90.083H137.948C137.49 90.083 137.051 89.9012 136.728 89.5777C136.404 89.2542 136.223 88.8155 136.223 88.358V61.178C136.223 60.7206 136.405 60.2822 136.728 59.9588C137.052 59.6354 137.49 59.4535 137.948 59.453L227.545 59.455C228.498 59.455 229.27 60.227 229.27 61.18V88.358C229.27 89.312 228.498 90.083 227.545 90.083ZM139.673 86.633H225.82V62.905L139.673 62.903V86.633ZM176.492 102.99H137.948C137.49 102.99 137.052 102.808 136.728 102.485C136.405 102.161 136.223 101.723 136.223 101.265C136.223 100.808 136.405 100.369 136.728 100.046C137.052 99.7226 137.49 99.541 137.948 99.541H176.492C176.949 99.5411 177.388 99.723 177.712 100.047C178.035 100.37 178.217 100.809 178.217 101.267C178.216 101.725 178.035 102.163 177.711 102.487C177.387 102.81 176.948 102.992 176.491 102.992L176.492 102.99ZM227.692 102.99H189.148C188.69 102.99 188.252 102.809 187.928 102.485C187.605 102.162 187.423 101.723 187.423 101.266C187.422 100.809 187.604 100.37 187.927 100.046C188.251 99.7229 188.689 99.5411 189.147 99.541H227.691C228.148 99.5411 228.587 99.723 228.911 100.047C229.234 100.37 229.416 100.809 229.416 101.267C229.415 101.725 229.234 102.163 228.91 102.487C228.586 102.81 228.147 102.992 227.69 102.992L227.692 102.99ZM227.545 49.98H137.948C137.49 49.98 137.051 49.7982 136.728 49.4746C136.404 49.151 136.222 48.7121 136.222 48.2545C136.222 47.7968 136.404 47.3579 136.728 47.0343C137.051 46.7108 137.49 46.529 137.948 46.529H227.545C227.995 46.5398 228.423 46.7262 228.737 47.0485C229.052 47.3707 229.228 47.8032 229.228 48.2535C229.228 48.7038 229.052 49.1362 228.737 49.4585C228.423 49.7807 227.995 49.9671 227.545 49.978V49.98ZM14.7126 52.588C14.3856 52.588 14.0566 52.495 13.7626 52.302L0.773623 43.72C0.535781 43.5625 0.340646 43.3486 0.20565 43.0973C0.0706542 42.846 0 42.5652 0 42.28C0 41.9947 0.0706542 41.7139 0.20565 41.4626C0.340646 41.2114 0.535781 40.9974 0.773623 40.84L13.7536 32.258C13.9425 32.1329 14.1542 32.0463 14.3765 32.0031C14.5989 31.9599 14.8276 31.961 15.0495 32.0062C15.2715 32.0514 15.4824 32.1399 15.6701 32.2667C15.8578 32.3935 16.0187 32.556 16.1436 32.745C16.2688 32.9337 16.3556 33.1454 16.399 33.3677C16.4423 33.59 16.4414 33.8188 16.3962 34.0407C16.3511 34.2627 16.2626 34.4736 16.1359 34.6614C16.0091 34.8492 15.8466 35.0101 15.6576 35.135L4.85262 42.28L15.6656 49.425C16.0471 49.6772 16.313 50.0706 16.4049 50.5186C16.4967 50.9667 16.4071 51.4329 16.1556 51.815C15.9977 52.053 15.7833 52.2483 15.5315 52.3832C15.2796 52.5181 14.9983 52.5884 14.7126 52.588ZM44.5376 85.895C44.1997 85.895 43.8693 85.7955 43.5876 85.609L30.5976 77.025C30.3595 76.868 30.1641 76.6544 30.0288 76.4033C29.8935 76.1522 29.8227 75.8714 29.8226 75.5862C29.8225 75.301 29.8931 75.0202 30.0282 74.7691C30.1633 74.5179 30.3586 74.3041 30.5966 74.147L43.5766 65.562C43.9581 65.3096 44.4243 65.2191 44.8725 65.3105C45.3207 65.4018 45.7143 65.6674 45.9666 66.049C46.219 66.4305 46.3094 66.8966 46.2181 67.3448C46.1268 67.793 45.8611 68.1866 45.4796 68.439L34.6776 75.588L45.4896 82.733C45.8711 82.9852 46.137 83.3786 46.2289 83.8266C46.3207 84.2747 46.2311 84.7409 45.9796 85.123C45.8219 85.3612 45.6074 85.5565 45.3556 85.6914C45.1037 85.8263 44.8223 85.8966 44.5366 85.896L44.5376 85.895ZM80.2306 85.895C79.8593 85.8962 79.4976 85.7775 79.1992 85.5565C78.9008 85.3356 78.6818 85.0241 78.5748 84.6686C78.4678 84.313 78.4785 83.9324 78.6053 83.5835C78.7322 83.2345 78.9683 82.9358 79.2786 82.732L90.0926 75.586L79.2876 68.44C78.9152 68.1837 78.6582 67.7916 78.572 67.3478C78.4858 66.9041 78.5772 66.4442 78.8266 66.0672C79.076 65.6901 79.4634 65.4261 79.9055 65.3318C80.3476 65.2375 80.8091 65.3205 81.1906 65.563L94.1706 74.148C94.4085 74.3052 94.6036 74.5189 94.7387 74.7701C94.8737 75.0212 94.9444 75.3018 94.9444 75.587C94.9444 75.8721 94.8737 76.1528 94.7387 76.4039C94.6036 76.655 94.4085 76.8687 94.1706 77.026L81.1806 85.609C80.8987 85.7949 80.5684 85.8949 80.2306 85.895ZM96.2706 52.588C95.8993 52.5892 95.5376 52.4705 95.2392 52.2495C94.9408 52.0286 94.7218 51.7171 94.6148 51.3616C94.5078 51.006 94.5185 50.6254 94.6453 50.2765C94.7722 49.9275 95.0083 49.6288 95.3186 49.425L106.133 42.279L95.3286 35.133C94.9627 34.874 94.712 34.4828 94.6294 34.0422C94.5468 33.6016 94.6389 33.1461 94.8861 32.7722C95.1334 32.3983 95.5164 32.1352 95.9541 32.0387C96.3919 31.9421 96.85 32.0197 97.2316 32.255L110.212 40.838C110.449 40.9952 110.645 41.2089 110.78 41.46C110.915 41.7112 110.985 41.9918 110.985 42.277C110.985 42.5621 110.915 42.8428 110.78 43.0939C110.645 43.345 110.449 43.5587 110.212 43.716L97.2216 52.298C96.9403 52.4855 96.6098 52.5857 96.2716 52.586L96.2706 52.588ZM27.2276 53.18H23.2476V28.335H27.2276V38.081C28.3606 36.606 30.2476 35.989 31.9976 35.989C36.1176 35.989 38.1076 38.939 38.1076 42.612V53.182H34.1256V43.299C34.1256 41.239 33.1996 39.592 30.6936 39.592C28.4976 39.592 27.2966 41.239 27.2276 43.367V53.182V53.18ZM47.9896 36.468H51.4556V40.002H47.9896V47.758C47.9896 49.234 48.6416 49.851 50.1176 49.851C50.6676 49.851 51.3176 49.749 51.4906 49.715V53.009C51.2506 53.113 50.4956 53.387 49.0536 53.387C45.9656 53.387 44.0436 51.533 44.0436 48.41V40H40.9556V36.466H41.8136C43.5976 36.466 44.3876 35.333 44.3876 33.858V31.353H47.9906V36.466L47.9896 36.468ZM55.2296 53.18V36.468H59.0396V38.595C59.9996 36.879 62.0926 35.988 63.9796 35.988C66.1766 35.988 68.0996 36.983 68.9896 38.938C70.2946 36.743 72.2496 35.988 74.4126 35.988C77.4326 35.988 80.3156 37.908 80.3156 42.338V53.18H76.4716V42.988C76.4716 41.032 75.4766 39.556 73.2456 39.556C71.1526 39.556 69.7796 41.203 69.7796 43.262V53.18H65.8676V42.988C65.8676 41.066 64.9076 39.556 62.6416 39.556C60.5136 39.556 59.1756 41.136 59.1756 43.262V53.18H55.2296ZM85.1876 53.18V28.335H89.1676V53.18H85.1876ZM52.3476 85.95C52.06 85.9503 51.7768 85.8786 51.5239 85.7415C51.2711 85.6043 51.0565 85.4061 50.8999 85.1649C50.7432 84.9236 50.6494 84.647 50.627 84.3602C50.6046 84.0734 50.6543 83.7856 50.7716 83.523L58.1876 66.84C58.2797 66.6329 58.4116 66.4461 58.5759 66.29C58.7402 66.134 58.9336 66.0118 59.1451 65.9305C59.3565 65.8492 59.582 65.8104 59.8085 65.8162C60.035 65.822 60.2581 65.8724 60.4651 65.9645C60.6721 66.0565 60.859 66.1885 61.0151 66.3527C61.1711 66.517 61.2933 66.7104 61.3746 66.9219C61.4559 67.1334 61.4947 67.3588 61.4889 67.5853C61.4831 67.8118 61.4327 68.0349 61.3406 68.242L53.9236 84.925C53.7882 85.2301 53.5671 85.4893 53.2871 85.671C53.0072 85.8528 52.6804 85.9494 52.3466 85.949L52.3476 85.95Z" fill="black"/>
<path id="Vector_6" d="M73.7296 85.88H59.5976C59.3711 85.8801 59.1468 85.8355 58.9375 85.7489C58.7282 85.6622 58.538 85.5352 58.3777 85.3751C58.2175 85.215 58.0904 85.0248 58.0036 84.8156C57.9169 84.6063 57.8722 84.382 57.8721 84.1555C57.8721 83.929 57.9166 83.7046 58.0032 83.4953C58.0899 83.286 58.2169 83.0958 58.377 82.9356C58.5372 82.7754 58.7273 82.6482 58.9365 82.5615C59.1458 82.4747 59.3701 82.4301 59.5966 82.43H73.7276C74.1851 82.43 74.6239 82.6117 74.9474 82.9352C75.2709 83.2587 75.4526 83.6975 75.4526 84.155C75.4526 84.6125 75.2709 85.0512 74.9474 85.3747C74.6239 85.6982 74.1851 85.88 73.7276 85.88H73.7296Z" fill="#B2F9DA"/>
</g>
</svg>
