<svg width="96" height="96" viewBox="0 0 96 96" fill="none" xmlns="http://www.w3.org/2000/svg">
<g id="icon">
<rect id="Rectangle 25" width="96" height="96" rx="30" fill="url(#paint0_linear_0_212)"/>
<g id="Group">
<path id="Vector" d="M40.5669 59.4969L34.9027 52.9914C34.6223 52.711 34.2858 52.5428 33.8932 52.4867C33.5006 52.4867 33.1081 52.5989 32.8277 52.8793C32.3229 53.3279 32.2108 54.057 32.4912 54.6178L32.6594 54.9543C33.5006 56.6367 34.5101 58.2631 35.6878 59.7773L36.6412 61.0671C36.8094 61.2915 36.8655 61.5158 36.8094 61.7962C36.7534 62.0766 36.6412 62.3009 36.4169 62.4131C36.1925 62.5813 35.9682 62.6374 35.6878 62.5813C35.4074 62.5253 35.1831 62.4131 35.0709 62.1888L34.0615 60.8989C32.8837 59.2725 31.7621 57.5901 30.8648 55.7955L30.6966 55.459C29.9675 54.057 30.304 52.3745 31.4817 51.3651C31.5939 51.309 31.65 51.1968 31.7621 51.1408L29.7993 46.0374C29.575 45.4205 28.9581 45.0279 28.3412 44.9718C27.8364 44.9157 27.3878 45.084 27.0513 45.4205C26.7148 45.7569 26.4905 46.2056 26.4905 46.7103L26.7148 60.1138C26.7148 61.3476 27.2195 62.5813 28.1168 63.4786L33.1642 68.6381H41.7446L41.5764 62.0766C41.5764 61.1232 41.1838 60.2259 40.5669 59.4969Z" fill="white"/>
<path id="Vector_2" d="M33.2764 73.7973C33.2764 74.2459 33.6689 74.6385 34.1176 74.6385H40.9595C41.4082 74.6385 41.8007 74.2459 41.8007 73.7973V70.4324H33.2764V73.7973Z" fill="white"/>
<path id="Vector_3" d="M68.4954 45.4205C68.1589 45.084 67.6541 44.9157 67.2055 44.9718C66.5886 45.0279 65.9717 45.4765 65.7474 46.0374L63.6724 51.2529C63.7845 51.309 63.8406 51.3651 63.9528 51.4772C65.1305 52.4867 65.4109 54.1691 64.7379 55.5712L64.5136 55.8516C63.6163 57.6462 62.5507 59.3286 61.3169 60.955L60.3075 62.2449C60.1392 62.4692 59.9149 62.5813 59.6906 62.6374C59.4102 62.6935 59.1859 62.5813 58.9615 62.4692C58.7372 62.3009 58.625 62.0766 58.569 61.8523C58.5129 61.5719 58.569 61.3476 58.7372 61.1232L59.7467 59.8334C60.8683 58.3192 61.8778 56.6928 62.7751 55.0104L62.9433 54.6739C63.2237 54.057 63.1116 53.384 62.6068 52.9354C62.3264 52.6549 61.9338 52.5428 61.5413 52.5428C61.1487 52.5989 60.8122 52.7671 60.5318 53.0475L54.9237 59.4969C54.3068 60.2259 53.9142 61.1232 53.9142 62.0766L53.746 68.582H62.3264L67.3737 63.4226C68.271 62.5253 68.7758 61.3476 68.7758 60.0577L69.0001 46.6542C69.0001 46.2056 68.8318 45.7569 68.4954 45.4205Z" fill="white"/>
<path id="Vector_4" d="M53.746 73.7973C53.746 74.2459 54.1385 74.6385 54.5872 74.6385H61.4291C61.8778 74.6385 62.2703 74.2459 62.2703 73.7973V70.4324H53.746V73.7973Z" fill="white"/>
<path id="Vector_5" d="M59.8027 44.1302C59.8027 37.4566 54.4189 32.0728 47.7452 32.0728C41.0716 32.0728 35.6877 37.4566 35.6877 44.1302C35.6877 50.8039 41.0716 56.1877 47.7452 56.1877C54.4189 56.1877 59.8027 50.8039 59.8027 44.1302ZM54.3067 42.9525L51.8392 45.1958C51.6709 45.3079 51.6148 45.5323 51.6709 45.7566L52.3439 49.0654C52.5121 49.8505 51.6709 50.4674 50.9419 50.0749L48.0256 48.3924C47.8574 48.2803 47.6331 48.2803 47.4648 48.3924L44.5486 50.0749C43.8195 50.4674 42.9783 49.8505 43.1466 49.0654L43.8195 45.7566C43.8756 45.5884 43.8195 45.364 43.6513 45.2519L41.1837 43.0086C40.5668 42.4478 40.9033 41.4944 41.6884 41.3823L45.0533 40.9897C45.2776 40.9897 45.4459 40.8214 45.502 40.6532L46.904 37.5687C47.2405 36.8397 48.306 36.8397 48.6425 37.5687L50.0446 40.6532C50.1006 40.8214 50.325 40.9336 50.4932 40.9897L53.8581 41.3823C54.5871 41.4383 54.9236 42.3917 54.3067 42.9525Z" fill="white"/>
<path id="Vector_6" d="M47.7453 28.8201C48.6987 28.8201 49.4277 28.035 49.4277 27.1377V23.0438C49.4277 22.0904 48.6426 21.3613 47.7453 21.3613C46.848 21.3613 46.0629 22.1465 46.0629 23.0438V27.0816C46.0629 28.035 46.7919 28.8201 47.7453 28.8201Z" fill="white"/>
<path id="Vector_7" d="M54.9237 30.6147C55.2041 30.7268 55.4284 30.839 55.7089 30.839C56.3257 30.839 56.8866 30.5025 57.223 29.9417L59.1298 26.3525C59.5785 25.5113 59.242 24.5018 58.4008 24.0531C57.5595 23.6045 56.5501 23.941 56.1014 24.7822L54.1947 28.3714C53.8021 29.1565 54.0825 30.166 54.9237 30.6147Z" fill="white"/>
<path id="Vector_8" d="M38.2675 29.8859C38.5479 30.4467 39.1648 30.7832 39.7817 30.7832C40.0621 30.7832 40.3425 30.7271 40.5668 30.5589C41.408 30.1103 41.6884 29.1008 41.2959 28.2596L39.333 24.7264C38.8844 23.8852 37.8749 23.6048 37.0337 23.9974C36.1925 24.446 35.9121 25.4555 36.3046 26.2967L38.2675 29.8859Z" fill="white"/>
</g>
</g>
<defs>
<linearGradient id="paint0_linear_0_212" x1="48" y1="0" x2="48" y2="96" gradientUnits="userSpaceOnUse">
<stop stop-color="#FF3D41"/>
<stop offset="1" stop-color="#FFA2A4"/>
</linearGradient>
</defs>
</svg>
