<svg width="96" height="96" viewBox="0 0 96 96" fill="none" xmlns="http://www.w3.org/2000/svg">
<g id="icon">
<rect id="Rectangle 24" width="96" height="96" rx="30" fill="url(#paint0_linear_0_201)"/>
<g id="Group">
<path id="Vector" d="M55.5522 52.8C56.2238 53.4857 56.2238 54.5143 55.5522 55.2C54.8806 55.8857 53.8731 55.8857 53.2015 55.2C52.5298 54.5143 52.5298 53.4857 53.2015 52.8C53.8731 52.1143 54.8806 52.1143 55.5522 52.8ZM43.7985 43.2C44.4701 42.5143 44.4701 41.4857 43.7985 40.8C43.1268 40.1143 42.1194 40.1143 41.4477 40.8C40.7761 41.4857 40.7761 42.5143 41.4477 43.2C41.9515 43.8857 43.1268 43.8857 43.7985 43.2ZM69.6567 50.4C70.6641 51.7714 71.1679 53.6571 70.8321 55.3714C69.9925 57.0857 68.6492 58.2857 66.9701 58.8C66.2985 59.1429 65.4589 59.4857 64.9552 60C64.6194 60.6857 64.4515 61.5429 64.4515 62.4C64.4515 64.2857 63.7798 66 62.4365 67.2C60.9253 68.0571 59.0783 68.2286 57.3992 67.7143C56.5597 67.5429 55.7201 67.3714 54.8806 67.5429C54.2089 67.8857 53.7052 68.5714 53.2015 69.0857C52.194 70.6286 50.5149 71.6571 48.6679 72C46.8209 71.8286 45.3097 70.8 44.1343 69.2571C43.6306 68.5714 42.9589 68.0571 42.2873 67.7143C41.4477 67.5429 40.6082 67.7143 39.7686 67.8857C38.0895 68.4 36.2425 68.2286 34.7313 67.3714C33.388 66.1714 32.7164 64.4571 32.7164 62.5714C32.7164 61.7143 32.5485 60.8571 32.2127 60.1714C31.541 59.6571 30.8694 59.1429 30.0298 58.9714C28.3507 58.4571 26.8395 57.2571 26.1679 55.5429C25.8321 53.8286 26.3358 51.9429 27.3433 50.5714C27.6791 49.7143 28.1828 48.8571 28.3507 48C28.1828 47.1429 27.847 46.2857 27.3433 45.6C26.3358 44.2286 26 42.3429 26.1679 40.6286C26.8395 38.9143 28.1828 37.7143 29.8619 37.2C30.5335 36.8571 31.3731 36.5143 31.8768 36C32.3806 35.1429 32.5485 34.2857 32.5485 33.4286C32.5485 31.5429 33.2201 29.8286 34.5634 28.6286C36.0746 27.7714 37.9216 27.6 39.6007 28.1143C40.4403 28.2857 41.2798 28.4571 42.1194 28.2857C42.791 27.9429 43.4627 27.4286 43.9664 26.7429C44.9738 25.2 46.653 24.1714 48.5 24C50.347 24.1714 51.8582 25.2 53.0336 26.7429C53.5373 27.4286 54.041 27.9429 54.7127 28.2857C55.5522 28.4571 56.3918 28.2857 57.2313 28.1143C58.9104 27.6 60.7574 27.7714 62.2686 28.6286C63.6119 29.8286 64.4515 31.7143 64.4515 33.6C64.4515 34.4571 64.6194 35.3143 64.9552 36C65.6268 36.5143 66.2985 37.0286 67.138 37.2C68.8171 37.7143 70.3283 38.9143 71 40.6286C71.3358 42.3429 70.8321 44.2286 69.8246 45.6C69.3209 46.2857 68.985 47.1429 68.8171 48C68.8171 48.8571 69.153 49.7143 69.6567 50.4ZM38.9291 45.6C40.944 47.6571 44.1343 47.6571 45.9813 45.6C47.8283 43.5429 47.9962 40.2857 45.9813 38.4C43.9664 36.3429 40.7761 36.3429 38.9291 38.4C36.9141 40.2857 36.9141 43.5429 38.9291 45.6ZM57.903 40.8C58.5746 40.1143 58.5746 39.0857 57.903 38.4C57.2313 37.7143 56.2238 37.7143 55.5522 38.4L38.9291 55.3714C38.2574 56.0571 38.2574 57.0857 38.9291 57.7714C39.6007 58.4571 40.6082 58.4571 41.2798 57.7714L57.903 40.8ZM57.903 50.4C55.888 48.3429 52.6977 48.3429 50.8507 50.4C48.8358 52.4571 48.8358 55.7143 50.8507 57.6C52.8656 59.6571 56.0559 59.6571 57.903 57.6C59.9179 55.7143 59.9179 52.4571 57.903 50.4Z" fill="white"/>
</g>
</g>
<defs>
<linearGradient id="paint0_linear_0_201" x1="48" y1="0" x2="48" y2="96" gradientUnits="userSpaceOnUse">
<stop stop-color="#FF4C86"/>
<stop offset="1" stop-color="#FF94B7"/>
</linearGradient>
</defs>
</svg>
