<svg width="96" height="96" viewBox="0 0 96 96" fill="none" xmlns="http://www.w3.org/2000/svg">
<g id="icon">
<rect id="Rectangle 24" width="96" height="96" rx="30" fill="url(#paint0_linear_0_184)"/>
<g id="Group">
<path id="Vector" d="M38.7322 43.2064C38.7322 42.8302 38.4162 42.5615 38.1003 42.5615H32.8873C32.5187 42.5615 32.2554 42.884 32.2554 43.2064V48.0431C32.2554 48.4193 32.5713 48.688 32.8873 48.688H38.1003C38.4689 48.688 38.7322 48.3655 38.7322 48.0431V43.2064Z" fill="white"/>
<path id="Vector_2" d="M52.2649 42.5615C51.8963 42.5615 51.6331 42.884 51.6331 43.2064V48.0431C51.6331 48.4193 51.949 48.688 52.2649 48.688H57.478C57.8466 48.688 58.1099 48.3655 58.1099 48.0431V43.2064C58.1099 42.8302 57.7939 42.5615 57.478 42.5615H52.2649Z" fill="white"/>
<path id="Vector_3" d="M47.7891 42.5615H42.5761C42.2075 42.5615 41.9442 42.884 41.9442 43.2064V48.0431C41.9442 48.4193 42.2602 48.688 42.5761 48.688H47.7891C48.1577 48.688 48.421 48.3655 48.421 48.0431V43.2064C48.421 42.8302 48.1051 42.5615 47.7891 42.5615Z" fill="white"/>
<path id="Vector_4" d="M38.0476 51.8589H32.8345C32.4659 51.8589 32.2026 52.1813 32.2026 52.5038V57.3404C32.2026 57.7166 32.5186 57.9853 32.8345 57.9853H38.0476C38.4162 57.9853 38.6794 57.6629 38.6794 57.3404V52.5038C38.7321 52.1813 38.4162 51.8589 38.0476 51.8589Z" fill="white"/>
<path id="Vector_5" d="M47.7891 51.8589H42.5761C42.2075 51.8589 41.9442 52.1813 41.9442 52.5038V57.3404C41.9442 57.7166 42.2602 57.9853 42.5761 57.9853H47.7891C48.1577 57.9853 48.421 57.6629 48.421 57.3404V52.5038C48.421 52.1813 48.1051 51.8589 47.7891 51.8589Z" fill="white"/>
<path id="Vector_6" d="M47.6838 62.0158H29.7804C28.78 62.0158 28.0428 61.2097 28.0428 60.2424V38.5848H62.3751V48.2044C63.7442 48.2582 65.1133 48.4731 66.3244 48.9031V33.2645C66.3244 30.255 63.9022 27.7829 60.9534 27.7829H56.9515V24.7197C56.9515 23.7524 56.2143 23 55.2664 23H52.107C51.1592 23 50.422 23.7524 50.422 24.7197V27.7829H39.9433V24.7197C39.9433 23.7524 39.2061 23 38.2582 23H35.0461C34.151 23 33.3611 23.7524 33.3611 24.7197V27.7829H29.3592C26.4631 27.7829 24.0408 30.255 24.0408 33.2645V60.1886C24.0408 63.4131 26.621 66.0464 29.7804 66.0464H48.0524C47.7891 64.9715 47.6838 63.8967 47.6838 62.7144C47.6838 62.4995 47.6838 62.2308 47.6838 62.0158Z" fill="white"/>
<path id="Vector_7" d="M61.9012 51.4287C55.793 51.4287 50.8433 56.4803 50.8433 62.7143C50.8433 68.9482 55.793 73.9998 61.9012 73.9998C68.0095 73.9998 72.9592 68.9482 72.9592 62.7143C73.0119 56.5341 68.0621 51.4287 61.9012 51.4287ZM61.4273 61.5857H62.4805C64.6394 61.5857 66.3771 63.4666 66.1665 65.7238C66.0085 67.3897 64.6921 68.6795 63.1123 69.0019V70.5604C63.1123 70.7216 62.9544 70.8829 62.7964 70.8829H61.1114C60.9534 70.8829 60.7954 70.7216 60.7954 70.5604V69.0557C59.1631 68.787 57.8993 67.3897 57.7413 65.67C57.7413 65.5088 57.8993 65.3476 58.0573 65.3476H59.7423C59.9003 65.3476 60.0056 65.4551 60.0582 65.5625C60.1109 66.2612 60.6901 66.7986 61.4273 66.7986H62.3751C63.0597 66.7986 63.7442 66.3149 63.8495 65.6163C64.0075 64.7027 63.323 63.9503 62.4278 63.9503H61.5326C59.5843 63.9503 57.8993 62.4993 57.6887 60.5646C57.478 58.5225 58.8998 56.8028 60.7428 56.4803V54.9756C60.7428 54.8144 60.9008 54.6532 61.0587 54.6532H62.7437C62.9017 54.6532 63.0597 54.8144 63.0597 54.9756V56.4803C64.6921 56.749 65.9558 58.1463 66.1138 59.866C66.1138 60.0272 65.9558 60.1885 65.7979 60.1885H64.1128C63.9549 60.1885 63.8495 60.081 63.7969 59.9735C63.6916 59.2749 63.1123 58.7375 62.3751 58.7375H61.4273C60.7428 58.7375 60.0582 59.2211 59.9529 59.9198C59.8476 60.7796 60.5322 61.5857 61.4273 61.5857Z" fill="white"/>
</g>
</g>
<defs>
<linearGradient id="paint0_linear_0_184" x1="48" y1="0" x2="48" y2="96" gradientUnits="userSpaceOnUse">
<stop stop-color="#FF8B31"/>
<stop offset="1" stop-color="#FFC696"/>
</linearGradient>
</defs>
</svg>
