<svg width="96" height="96" viewBox="0 0 96 96" fill="none" xmlns="http://www.w3.org/2000/svg">
<g id="icon">
<rect id="Rectangle 25" width="96" height="96" rx="30" fill="url(#paint0_linear_0_164)"/>
<g id="Group">
<g id="Group_2">
<path id="Vector" d="M26.6508 30.0545C26.6508 27.5053 28.722 25.3545 31.3508 25.3545C33.9797 25.3545 36.0508 27.5053 36.0508 30.0545C36.0508 32.6833 33.9797 34.7545 31.3508 34.7545C28.722 34.7545 26.6508 32.6833 26.6508 30.0545Z" fill="white"/>
<path id="Vector_2" d="M40.1932 42.0035V54.9883C40.1932 55.3866 39.7949 55.7849 39.3966 55.7849H36.8475V70.2035C36.8475 70.6018 36.4491 71.0001 36.0508 71.0001H26.5712C26.1729 71.0001 25.7746 70.6018 25.7746 70.2035V55.7052H23.3051C22.8271 55.7052 22.5085 55.3069 22.5085 54.9086V42.0035C22.5085 39.2154 24.8186 36.9849 27.6068 36.9849H35.0152C37.883 36.9849 40.1932 39.2154 40.1932 42.0035Z" fill="white"/>
</g>
<g id="Group_3">
<g id="Group_4">
<path id="Vector_3" d="M73.4915 55.6256V64.3883C73.4915 64.7866 73.1729 65.1053 72.7746 65.1053H68.2339L64.7288 67.9731C64.5695 68.0527 64.4102 68.1324 64.2508 68.1324H52.5407C51.3458 68.1324 50.3102 67.1765 50.3102 65.9816C50.3102 65.4239 50.5491 64.8663 50.8678 64.468C50.5491 64.0697 50.3102 63.5917 50.3102 62.9544C50.3102 62.3968 50.5491 61.8392 50.8678 61.4409C50.4695 61.0426 50.3102 60.5646 50.3102 60.007C50.3102 59.4494 50.5491 58.8917 50.8678 58.4934C50.5491 58.0951 50.3102 57.6172 50.3102 56.9799C50.3102 55.785 51.2661 54.829 52.5407 54.829H59.4712V52.3595C59.4712 51.9612 59.7898 51.6426 60.1881 51.6426H64.6491C64.8085 51.6426 65.0475 51.7222 65.1271 51.8816L68.1542 54.829H72.7746C73.1729 54.9087 73.4915 55.2273 73.4915 55.6256Z" fill="white"/>
</g>
<g id="Group_5">
<path id="Vector_4" d="M55.8864 24C49.6729 24 44.5746 29.0983 44.5746 35.3119C44.5746 41.5254 49.6729 46.6237 55.8864 46.6237C62.1 46.6237 67.1983 41.5254 67.1983 35.3119C67.1983 29.0983 62.1 24 55.8864 24ZM63.6932 41.0475C62.1 38.339 59.1525 36.6661 55.8864 36.6661C52.6203 36.6661 49.6729 38.339 48.0797 41.0475C46.8847 39.4542 46.1678 37.4627 46.1678 35.3119C46.1678 29.9746 50.5491 25.5932 55.8864 25.5932C61.2237 25.5932 65.6051 29.9746 65.6051 35.3119C65.6051 37.4627 64.8881 39.4542 63.6932 41.0475Z" fill="white"/>
<path id="Vector_5" d="M55.8864 35.3116C57.9576 35.3116 59.6305 33.6387 59.6305 31.5676C59.6305 29.4964 57.9576 27.8235 55.8864 27.8235C53.8152 27.8235 52.1424 29.4964 52.1424 31.5676C52.1424 33.6387 53.8152 35.3116 55.8864 35.3116Z" fill="white"/>
</g>
<path id="Vector_6" d="M59.0729 47.8186V50.4474C58.3559 50.8457 57.878 51.6423 57.878 52.5186V53.3949H52.7V47.8983C53.7356 48.1372 54.7712 48.2966 55.8864 48.2966C57.0017 48.2966 58.0373 48.0576 59.0729 47.8186Z" fill="white"/>
</g>
</g>
</g>
<defs>
<linearGradient id="paint0_linear_0_164" x1="48" y1="0" x2="48" y2="96" gradientUnits="userSpaceOnUse">
<stop stop-color="#009EDD"/>
<stop offset="1" stop-color="#A6E2FC"/>
</linearGradient>
</defs>
</svg>
