<svg width="170" height="27" viewBox="0 0 170 27" fill="none" xmlns="http://www.w3.org/2000/svg">
<g id="Social">
<g id="facebook icon">
<rect id="Rectangle 124" width="26.1538" height="26.1538" fill="white" fill-opacity="0.01"/>
<path id="Vector" fill-rule="evenodd" clip-rule="evenodd" d="M17.9631 6.49742C17.3518 6.37515 16.5261 6.28381 16.0068 6.28381C14.6007 6.28381 14.5094 6.89516 14.5094 7.87331V9.61458H18.0243L17.7179 13.2215H14.5094V24.1927H10.1084V13.2215H7.84644V9.61458H10.1084V7.38352C10.1084 4.3275 11.5447 2.61572 15.1509 2.61572C16.4038 2.61572 17.3209 2.79913 18.5126 3.04367L17.9631 6.49742Z" fill="#696477"/>
</g>
<g id="linkedin icon">
<rect id="Rectangle 124_2" x="95.8976" width="26.1538" height="26.1538" fill="white" fill-opacity="0.01"/>
<path id="Union" fill-rule="evenodd" clip-rule="evenodd" d="M100.812 7.0651C102.266 7.0651 103.196 6.07684 103.196 4.85569C103.168 3.5752 102.266 2.61572 100.84 2.61572C99.4146 2.61572 98.4848 3.5752 98.5136 4.85569C98.4848 6.07684 99.4146 7.0651 100.812 7.0651ZM98.6305 8.81049V23.0336H103.051V8.81049H98.6305ZM106.477 8.81242C106.536 10.0632 106.594 11.5757 106.594 13.3499H106.596V23.0364H111.017V14.8336C111.017 14.4254 111.074 14.0189 111.191 13.7276C111.482 12.9138 112.208 12.0703 113.43 12.0703C115.03 12.0703 115.669 13.3202 115.669 15.1538V23.0364H120.09V14.5998C120.09 10.413 117.908 8.49319 115 8.49319C112.644 8.49319 111.19 9.85912 110.608 10.761H110.521L110.317 8.81242H106.477Z" fill="#696477"/>
</g>
<g id="Twitter">
<rect id="Rectangle 124_3" x="143.846" width="26.1538" height="26.1538" fill="white" fill-opacity="0.01"/>
<path id="Vector_2" fill-rule="evenodd" clip-rule="evenodd" d="M168.693 6.18662C167.827 6.57106 166.896 6.82996 165.919 6.94686C166.916 6.34902 167.682 5.40284 168.042 4.27542C167.11 4.82932 166.075 5.23023 164.976 5.44756C164.095 4.50922 162.839 3.92236 161.451 3.92236C158.784 3.92236 156.622 6.08462 156.622 8.75136C156.622 9.12952 156.665 9.49827 156.748 9.85211C152.734 9.65126 149.176 7.72829 146.794 4.80657C146.378 5.51974 146.14 6.34903 146.14 7.23402C146.14 8.90907 146.992 10.3872 148.289 11.2533C147.496 11.2282 146.752 11.0109 146.1 10.6492V10.7096C146.1 13.05 147.766 15.0012 149.974 15.4461C149.569 15.5559 149.142 15.6155 148.702 15.6155C148.391 15.6155 148.088 15.5849 147.793 15.5284C148.407 17.4467 150.191 18.8432 152.304 18.8825C150.652 20.177 148.569 20.9498 146.307 20.9498C145.916 20.9498 145.532 20.927 145.154 20.8815C147.291 22.2514 149.829 23.0516 152.557 23.0516C161.439 23.0516 166.296 15.6932 166.296 9.31232C166.296 9.10284 166.292 8.89416 166.282 8.68782C167.226 8.00525 168.045 7.15477 168.693 6.18662Z" fill="#696477"/>
</g>
<g id="instagram icon">
<rect id="Rectangle 124_4" x="47.9486" width="26.1538" height="26.1538" fill="white" fill-opacity="0.01"/>
<path id="Union_2" fill-rule="evenodd" clip-rule="evenodd" d="M61.0258 3.42868C64.1683 3.42868 64.5405 3.44069 65.7815 3.49731C66.929 3.54964 67.5522 3.74137 67.9669 3.90254C68.5163 4.11604 68.9083 4.37108 69.3201 4.7829C69.732 5.19476 69.987 5.58682 70.2006 6.13618C70.3617 6.55089 70.5535 7.17407 70.6058 8.32155C70.6624 9.56257 70.6744 9.93482 70.6744 13.0773C70.6744 16.2198 70.6624 16.5921 70.6058 17.8331C70.5535 18.9806 70.3617 19.6038 70.2006 20.0185C69.987 20.5678 69.732 20.9599 69.3202 21.3717C68.9083 21.7836 68.5163 22.0386 67.9669 22.2521C67.5522 22.4133 66.929 22.605 65.7815 22.6573C64.5407 22.714 64.1685 22.726 61.0258 22.726C57.883 22.726 57.5108 22.714 56.2699 22.6573C55.1224 22.605 54.4993 22.4133 54.0846 22.2521C53.5352 22.0386 53.1431 21.7836 52.7313 21.3717C52.3195 20.9599 52.0644 20.5678 51.8509 20.0185C51.6897 19.6038 51.498 18.9806 51.4457 17.8331C51.3891 16.5921 51.3771 16.2198 51.3771 13.0773C51.3771 9.93482 51.3891 9.56257 51.4457 8.32155C51.498 7.17407 51.6897 6.55089 51.8509 6.13618C52.0644 5.58682 52.3195 5.19476 52.7313 4.78294C53.1431 4.37108 53.5352 4.11604 54.0846 3.90254C54.4993 3.74137 55.1224 3.54964 56.2699 3.49731C57.511 3.44069 57.8832 3.42868 61.0258 3.42868ZM61.0258 1.30811C57.8294 1.30811 57.4286 1.32165 56.1733 1.37893C54.9206 1.43607 54.065 1.63504 53.3164 1.92595C52.5425 2.22672 51.8861 2.62915 51.2318 3.28344C50.5775 3.93777 50.1751 4.59411 49.8744 5.36804C49.5834 6.11665 49.3844 6.9722 49.3273 8.22489C49.27 9.48021 49.2565 9.881 49.2565 13.0773C49.2565 16.2737 49.27 16.6745 49.3273 17.9298C49.3844 19.1825 49.5834 20.038 49.8744 20.7866C50.1751 21.5605 50.5775 22.2169 51.2318 22.8712C51.8861 23.5255 52.5425 23.9279 53.3164 24.2287C54.065 24.5196 54.9206 24.7186 56.1733 24.7757C57.4286 24.833 57.8294 24.8466 61.0258 24.8466C64.2221 24.8466 64.6229 24.833 65.8782 24.7757C67.1309 24.7186 67.9864 24.5196 68.735 24.2287C69.509 23.9279 70.1653 23.5255 70.8197 22.8712C71.4739 22.2169 71.8764 21.5605 72.1772 20.7866C72.4681 20.038 72.667 19.1825 72.7242 17.9298C72.7815 16.6745 72.795 16.2737 72.795 13.0773C72.795 9.881 72.7815 9.48021 72.7242 8.22489C72.667 6.9722 72.4681 6.11665 72.1772 5.36804C71.8764 4.59411 71.4739 3.93777 70.8197 3.28344C70.1653 2.62915 69.509 2.22672 68.735 1.92595C67.9864 1.63504 67.1309 1.43607 65.8782 1.37893C64.6229 1.32165 64.2221 1.30811 61.0258 1.30811ZM61.0316 7.03901C57.6937 7.03901 54.9879 9.74483 54.9879 13.0826C54.9879 16.4205 57.6937 19.1263 61.0316 19.1263C64.3694 19.1263 67.0753 16.4205 67.0753 13.0826C67.0753 9.74483 64.3694 7.03901 61.0316 7.03901ZM61.0316 17.0057C58.8649 17.0057 57.1085 15.2493 57.1085 13.0826C57.1085 10.916 58.8649 9.15959 61.0316 9.15959C63.1983 9.15959 64.9547 10.916 64.9547 13.0826C64.9547 15.2493 63.1983 17.0057 61.0316 17.0057ZM67.3136 8.20886C68.0936 8.20886 68.7259 7.57653 68.7259 6.79657C68.7259 6.01656 68.0936 5.38423 67.3136 5.38423C66.5336 5.38423 65.9013 6.01656 65.9013 6.79657C65.9013 7.57653 66.5336 8.20886 67.3136 8.20886Z" fill="#696477"/>
</g>
</g>
</svg>
