<svg width="20" height="21" viewBox="0 0 20 21" fill="none" xmlns="http://www.w3.org/2000/svg">
<g id="address">
<rect id="Rectangle 126" y="0.196289" width="20" height="20" fill="white" fill-opacity="0.01"/>
<path id="Vector" d="M2 7.42283L9.74836 11.4527C9.82609 11.4931 9.9124 11.5142 10 11.5142C10.0876 11.5142 10.1739 11.4931 10.2516 11.4527L18 7.42356V14.4236C18 15.0273 17.7691 15.6082 17.3544 16.047C16.9398 16.4858 16.373 16.7494 15.7702 16.7836L15.6364 16.7872H4.36364C3.7599 16.7872 3.17903 16.5562 2.7402 16.1416C2.30136 15.727 2.03782 15.1601 2.00364 14.5574L2 14.4236V7.42283ZM4.36364 3.69629H15.6364C16.2401 3.69625 16.821 3.92724 17.2598 4.34187C17.6986 4.7565 17.9622 5.32334 17.9964 5.92611L18 6.05993V6.19374L10 10.3537L2 6.19374V6.05993C1.99996 5.45619 2.23095 4.87532 2.64558 4.43648C3.06021 3.99765 3.62705 3.73411 4.22982 3.69993L4.36364 3.69629H15.6364H4.36364Z" fill="#693CDE"/>
</g>
</svg>
