<svg width="96" height="96" viewBox="0 0 96 96" fill="none" xmlns="http://www.w3.org/2000/svg">
<rect width="96" height="96" rx="30" fill="url(#paint0_linear_0_482)"/>
<path d="M47.8378 72.5134C53.8799 72.5134 59.6745 70.1435 63.9469 65.925C68.2193 61.7066 70.6195 55.9851 70.6195 50.0193C70.6195 44.0535 68.2193 38.332 63.9469 34.1135C59.6745 29.8951 53.8799 27.5251 47.8378 27.5251C47.608 27.5212 47.3797 27.4885 47.1583 27.4276V30.7395C47.1573 31.0424 47.072 31.3392 46.9118 31.5975C46.7515 31.8558 46.5224 32.0656 46.2496 32.2041C45.9767 32.3426 45.6706 32.4044 45.3646 32.3827C45.0586 32.3611 44.7645 32.2568 44.5145 32.0813L36.762 26.592C36.5453 26.4397 36.3686 26.2385 36.2466 26.005C36.1247 25.7716 36.0611 25.5128 36.0611 25.2501C36.0611 24.9875 36.1247 24.7286 36.2466 24.4952C36.3686 24.2618 36.5453 24.0605 36.762 23.9083L44.5145 18.4189C44.7645 18.2434 45.0586 18.1392 45.3646 18.1175C45.6706 18.0959 45.9767 18.1576 46.2496 18.2961C46.5224 18.4346 46.7515 18.6444 46.9118 18.9027C47.072 19.161 47.1573 19.4579 47.1583 19.7608V22.2371C47.3797 22.1761 47.608 22.1433 47.8378 22.1395C53.1778 22.1381 58.4087 23.6321 62.9232 26.4482C67.4377 29.2643 71.0507 33.287 73.3428 38.0492C75.6348 42.8113 76.5119 48.1178 75.8722 53.3524C75.2324 58.587 73.1022 63.5351 69.7287 67.6222C66.3552 71.7094 61.8768 74.768 56.8134 76.443C51.75 78.118 46.3094 78.3406 41.123 77.085C35.9366 75.8295 31.2173 73.1472 27.5129 69.3497C23.8084 65.5521 21.2708 60.795 20.1946 55.6306C20.1031 55.2778 20.0851 54.9103 20.1417 54.5504C20.1983 54.1905 20.3283 53.8458 20.5239 53.537C20.7195 53.2282 20.9765 52.9618 21.2795 52.754C21.5824 52.5463 21.9249 52.4014 22.2863 52.3282C22.6476 52.2551 23.0202 52.2551 23.3815 52.3284C23.7429 52.4016 24.0854 52.5466 24.3882 52.7544C24.6911 52.9622 24.9481 53.2287 25.1436 53.5375C25.3391 53.8463 25.4691 54.1911 25.5256 54.551C26.5951 59.6172 29.3955 64.1665 33.4576 67.4367C37.5197 70.7068 42.5967 72.4992 47.8378 72.5134ZM22.2208 48.7262C22.3685 48.7426 22.5174 48.7447 22.6655 48.7323C23.3695 48.728 24.0445 48.4548 24.5489 47.97C25.0533 47.4851 25.3481 46.8263 25.3714 46.1316C25.3947 45.4368 25.1447 44.7602 24.6738 44.2435C24.2029 43.7268 23.5477 43.4101 22.8456 43.3599C22.1435 43.3096 21.4489 43.5297 20.9075 43.974C20.3661 44.4183 20.0199 45.0523 19.9415 45.7431C19.8631 46.4338 20.0586 47.1277 20.4869 47.6793C20.9153 48.2309 21.5433 48.5974 22.2393 48.7018L22.2208 48.7262ZM29.8373 28.5986C29.4226 28.9382 29.1192 29.3916 28.9654 29.9014C28.8116 30.4113 28.8144 30.9547 28.9734 31.463C29.1324 31.9712 29.4405 32.4216 29.8587 32.757C30.2769 33.0923 30.7865 33.2978 31.3229 33.3472C31.8594 33.3967 32.3986 33.288 32.8725 33.0349C33.3464 32.7817 33.7336 32.3956 33.9852 31.9251C34.2367 31.4547 34.3414 30.9212 34.2859 30.3921C34.2304 29.8629 34.0173 29.3619 33.6734 28.9524C33.4495 28.6757 33.1724 28.4455 32.858 28.2751C32.5436 28.1047 32.1981 27.9974 31.8415 27.9594C31.4849 27.9214 31.1243 27.9535 30.7803 28.0538C30.4363 28.1541 30.1158 28.3206 29.8373 28.5437V28.5986ZM28.0459 38.8515C28.3405 38.3384 28.4557 37.7438 28.3737 37.1596C28.2917 36.5753 28.0171 36.0341 27.5923 35.6194C27.1675 35.2048 26.6161 34.9398 26.0235 34.8656C25.4309 34.7914 24.8301 34.912 24.3139 35.2088C23.7976 35.5055 23.3948 35.9619 23.1677 36.5074C22.9405 37.0529 22.9017 37.6571 23.0572 38.2266C23.2127 38.7961 23.5539 39.2991 24.028 39.6579C24.5021 40.0167 25.0827 40.2113 25.68 40.2116C26.1609 40.2113 26.6331 40.0852 27.0486 39.8463C27.4641 39.6074 27.8082 39.2642 28.0459 38.8515ZM47.9243 35.3749C47.3869 35.3749 46.8716 35.5857 46.4916 35.9609C46.1116 36.336 45.8982 36.8449 45.8982 37.3755V38.7173C42.2412 39.5224 39.9618 41.956 39.9618 45.1277C39.9618 49.0739 43.4458 50.739 46.4788 51.7454C48.9991 52.5871 49.9813 53.3495 49.9813 54.4656C49.9813 55.5818 48.8385 56.2954 46.9298 56.2954C45.6687 56.2955 44.4163 56.0894 43.2234 55.6855C42.9749 55.6012 42.714 55.5579 42.4513 55.5574C41.9418 55.556 41.4463 55.7217 41.0426 56.0287C40.6389 56.3356 40.35 56.7663 40.2213 57.253L40.178 57.4177C40.0306 57.9922 40.1118 58.6007 40.4048 59.118C40.6977 59.6353 41.1803 60.0221 41.7532 60.199C43.0419 60.6025 44.3759 60.8483 45.7252 60.9309V62.2117C45.7252 62.4744 45.7776 62.7346 45.8794 62.9773C45.9813 63.22 46.1305 63.4406 46.3186 63.6263C46.5068 63.8121 46.7301 63.9595 46.976 64.06C47.2218 64.1605 47.4853 64.2123 47.7513 64.2123C48.0174 64.2123 48.2809 64.1605 48.5267 64.06C48.7725 63.9595 48.9959 63.8121 49.184 63.6263C49.3722 63.4406 49.5214 63.22 49.6232 62.9773C49.7251 62.7346 49.7775 62.4744 49.7775 62.2117V60.632C53.5518 59.8879 56.0227 57.2957 56.0227 53.9777C56.0227 50.6597 54.1695 48.7079 49.9504 47.2258C46.9668 46.1157 45.9538 45.4387 45.9538 44.5421C45.9538 43.5053 46.9359 42.9136 48.6594 42.9136C49.68 42.9094 50.6957 43.0533 51.6739 43.3406C51.8745 43.3991 52.0824 43.4299 52.2916 43.4321C52.863 43.4405 53.4177 43.2418 53.8506 42.8736C54.2836 42.5053 54.5648 41.9931 54.6409 41.4339C54.717 40.8747 54.5828 40.3074 54.2637 39.8393C53.9446 39.3713 53.4627 39.035 52.9093 38.8942C51.9386 38.6469 50.9454 38.4957 49.9443 38.4429V37.3816C49.9443 36.8521 49.7316 36.3441 49.353 35.9691C48.9744 35.5941 48.4606 35.3826 47.9243 35.381V35.3749Z" fill="white"/>
<defs>
<linearGradient id="paint0_linear_0_482" x1="48" y1="0" x2="48" y2="96" gradientUnits="userSpaceOnUse">
<stop stop-color="#009EDD"/>
<stop offset="1" stop-color="#A6E2FC"/>
</linearGradient>
</defs>
</svg>
