<svg width="96" height="96" viewBox="0 0 96 96" fill="none" xmlns="http://www.w3.org/2000/svg">
<rect width="96" height="96" rx="30" fill="url(#paint0_linear_0_489)"/>
<path d="M27.8438 30.1875C29.1382 30.1875 30.1875 29.1382 30.1875 27.8438C30.1875 26.5493 29.1382 25.5 27.8438 25.5C26.5493 25.5 25.5 26.5493 25.5 27.8438C25.5 29.1382 26.5493 30.1875 27.8438 30.1875Z" fill="white"/>
<path d="M20.2031 30.9844C19.875 31.4531 19.6875 32.0625 19.7344 32.625C19.7812 33.3281 20.0625 33.9844 20.5781 34.4531L21.1875 35.0625C21.7031 35.5781 22.4062 35.9062 23.1562 35.9062C23.6719 35.9062 24.2344 35.7656 24.6562 35.4375C24.8906 36.75 26.0625 37.6406 27.375 37.6406H28.2656C29.5781 37.6406 30.75 36.75 30.9844 35.4375C31.4062 35.7656 31.9687 35.9062 32.4844 35.9062C33.2344 35.9062 33.9375 35.625 34.4531 35.0625L35.0625 34.4531C36 33.5156 36.1406 32.0625 35.4375 30.9844C36.75 30.75 37.6406 29.5781 37.6406 28.2656V27.375C37.6406 26.0625 36.75 24.8906 35.4375 24.6562C36.1875 23.5781 36 22.0781 35.0625 21.1875L34.4531 20.5781C33.9375 20.0625 33.2344 19.7344 32.4844 19.7344C31.9687 19.7344 31.4062 19.875 30.9844 20.2031C30.75 18.8906 29.5781 18 28.2656 18H27.375C26.0625 18 24.8906 18.8906 24.6562 20.2031C24.2344 19.875 23.6719 19.7344 23.1562 19.7344C22.4062 19.7344 21.7031 20.0156 21.1875 20.5781L20.5781 21.1875C20.0625 21.7031 19.7344 22.4531 19.7344 23.1562C19.7344 23.6719 19.875 24.2344 20.2031 24.6562C18.8906 24.8906 18 26.0625 18 27.375V28.2656C18 29.625 18.8906 30.75 20.2031 30.9844ZM27.8437 23.625C30.1875 23.625 32.0625 25.5 32.0625 27.8437C32.0625 30.1875 30.1875 32.0625 27.8437 32.0625C25.5 32.0625 23.625 30.1875 23.625 27.8437C23.625 25.5 25.5 23.625 27.8437 23.625Z" fill="white"/>
<path d="M48 49.4062C53.6954 49.4062 58.3125 44.7892 58.3125 39.0938C58.3125 33.3983 53.6954 28.7812 48 28.7812C42.3046 28.7812 37.6875 33.3983 37.6875 39.0938C37.6875 44.7892 42.3046 49.4062 48 49.4062Z" fill="white"/>
<path d="M75.7969 24.7031C76.5469 23.625 76.3594 22.125 75.4219 21.2344L74.8125 20.625C74.2969 20.1094 73.5938 19.7813 72.8438 19.7813C72.3281 19.7813 71.7656 19.9219 71.3438 20.25C71.1094 18.9375 69.9375 18.0469 68.625 18.0469H67.7344C66.4219 18.0469 65.25 18.9375 65.0156 20.25C64.5938 19.9219 64.0312 19.7813 63.5156 19.7813C62.7656 19.7813 62.0625 20.0625 61.5469 20.625L60.9375 21.2344C60.4219 21.75 60.0938 22.4531 60.0938 23.2031C60.0938 23.7188 60.2344 24.2813 60.5625 24.7031C59.25 24.9375 58.3594 26.1094 58.3594 27.4219V28.3125C58.3594 29.625 59.25 30.7969 60.5625 31.0312C60.2344 31.5 60.0469 32.1094 60.0938 32.6719C60.1406 33.375 60.4219 34.0313 60.9375 34.5L61.5469 35.1094C62.0625 35.625 62.7656 35.9531 63.5156 35.9531C64.0312 35.9531 64.5938 35.8125 65.0156 35.4844C65.25 36.7969 66.4219 37.6875 67.7344 37.6875H68.625C69.9375 37.6875 71.1094 36.7969 71.3438 35.4844C71.7656 35.8125 72.3281 35.9531 72.8438 35.9531C73.5938 35.9531 74.2969 35.6719 74.8125 35.1094L75.4219 34.5C76.3594 33.5625 76.5 32.1094 75.7969 31.0312C77.1094 30.7969 78 29.625 78 28.3125V27.4219C78 26.0625 77.1094 24.9375 75.7969 24.7031ZM68.1562 32.0625C65.8125 32.0625 63.9375 30.1875 63.9375 27.8438C63.9375 25.5 65.8125 23.625 68.1562 23.625C70.5 23.625 72.375 25.5 72.375 27.8438C72.375 30.1875 70.5 32.0625 68.1562 32.0625Z" fill="white"/>
<path d="M68.1562 30.1875C69.4507 30.1875 70.5 29.1382 70.5 27.8438C70.5 26.5493 69.4507 25.5 68.1562 25.5C66.8618 25.5 65.8125 26.5493 65.8125 27.8438C65.8125 29.1382 66.8618 30.1875 68.1562 30.1875Z" fill="white"/>
<path fill-rule="evenodd" clip-rule="evenodd" d="M62.0625 56.4375H33.9375C32.3906 56.4375 31.125 57.7031 31.125 59.2969L32.0625 75.1875C32.0625 76.7344 33.3281 78 34.875 78H61.125C62.6719 78 63.9375 76.7344 63.9375 75.1875L64.875 59.3437V59.2969C64.875 57.7031 63.6094 56.4375 62.0625 56.4375ZM44.25 67.5938C44.25 65.7656 45.7031 64.3125 47.5312 64.3125C49.3594 64.3125 50.8125 65.7656 50.8125 67.5938C50.8125 69.4219 49.3594 70.875 47.5312 70.875C45.7031 70.875 44.25 69.4219 44.25 67.5938ZM46.125 67.5938C46.125 68.3906 46.7344 69 47.5312 69C48.3281 68.9531 48.9375 68.3438 48.9375 67.5938C48.9375 66.7969 48.3281 66.1875 47.5312 66.1875C46.7344 66.1875 46.125 66.7969 46.125 67.5938Z" fill="white"/>
<path d="M77.0625 66.2813H68.625V57.8906C68.625 51.2344 64.3594 46.6406 57.8906 46.1719C54 51.6563 46.4062 52.9219 40.9219 49.0312C39.7969 48.2344 38.8594 47.2969 38.0625 46.1719C31.6406 46.6875 27.375 51.2344 27.375 57.8906V66.2813H18.9375C18.4219 66.2813 18 66.7031 18 67.2188C18 67.7344 18.4219 68.1563 18.9375 68.1563H29.7656L29.25 59.3906V59.3438V59.2969C29.25 56.7188 31.3594 54.6094 33.9375 54.5625H62.0625C64.6406 54.5625 66.75 56.6719 66.75 59.2969V59.3438V59.3906V59.4375V59.4844V59.5313L66.2344 68.25H77.0625C77.5781 68.25 78 67.8281 78 67.3125C78 66.7969 77.5781 66.2813 77.0625 66.2813Z" fill="white"/>
<defs>
<linearGradient id="paint0_linear_0_489" x1="48" y1="0" x2="48" y2="96" gradientUnits="userSpaceOnUse">
<stop stop-color="#FF8B31"/>
<stop offset="1" stop-color="#FFC696"/>
</linearGradient>
</defs>
</svg>
