<svg width="227" height="116" viewBox="0 0 227 116" fill="none" xmlns="http://www.w3.org/2000/svg">
<g id="product-management_Z_HpF 1">
<path id="Vector" d="M92.195 1.74597H136.015V27.924H92.195V1.74597Z" fill="#C1A9FF"/>
<path id="Vector_2" d="M3 50H46.82V76.178H3V50Z" fill="#FFCE94"/>
<path id="Vector_3" d="M136.015 29.668H92.197C91.233 29.668 90.452 28.888 90.452 27.923V1.745C90.452 0.78 91.232 0 92.197 0H136.015C136.979 0 137.76 0.78 137.76 1.745V27.925C137.76 28.888 136.98 29.668 136.015 29.668ZM93.942 26.178H134.272V3.49H93.942V26.18V26.178ZM45.565 77.805H1.745C0.781 77.805 0 77.025 0 76.06V49.88C0 48.917 0.78 48.136 1.745 48.136H45.563C46.527 48.136 47.308 48.916 47.308 49.881V76.061C47.308 77.025 46.528 77.806 45.564 77.806L45.565 77.805ZM3.49 74.315H43.82V51.625H3.49V74.315ZM105.277 77.805H61.457C60.494 77.805 59.713 77.025 59.713 76.06V49.88C59.713 48.917 60.493 48.136 61.458 48.136H105.276C106.241 48.136 107.022 48.916 107.022 49.881V76.061C107.022 77.025 106.242 77.806 105.278 77.806L105.277 77.805ZM63.203 74.315H103.533V51.625H63.203V74.315ZM164.99 77.805H121.172C120.208 77.805 119.427 77.025 119.427 76.06V49.88C119.427 48.917 120.207 48.136 121.172 48.136H164.99C165.954 48.136 166.735 48.916 166.735 49.881V76.061C166.735 77.025 165.955 77.805 164.99 77.805ZM122.917 74.315H163.247V51.625H122.917V74.315Z" fill="black"/>
<path id="Vector_4" d="M121.172 88.077H164.992V114.255H121.172V88.077Z" fill="#B2F9DA"/>
<path id="Vector_5" d="M164.99 116H121.172C120.208 116 119.427 115.22 119.427 114.255V88.077C119.427 87.113 120.207 86.332 121.172 86.332H164.99C165.954 86.332 166.735 87.112 166.735 88.077V114.257C166.735 115.22 165.955 116 164.99 116ZM122.917 112.51H163.247V89.82H122.917V112.51ZM224.705 77.805H180.885C179.921 77.805 179.14 77.025 179.14 76.06V49.88C179.14 48.917 179.92 48.136 180.885 48.136H224.705C225.669 48.136 226.45 48.916 226.45 49.881V76.061C226.45 77.025 225.67 77.806 224.705 77.806V77.805ZM182.63 74.315H222.96V51.625H182.63V74.315ZM202.795 39.734H23.655C22.691 39.734 21.91 38.954 21.91 37.989C21.91 37.024 22.69 36.243 23.655 36.243H202.795C203.258 36.243 203.701 36.4268 204.029 36.754C204.356 37.0812 204.539 37.5249 204.539 37.9875C204.539 38.4502 204.356 38.8939 204.029 39.2211C203.701 39.5482 203.258 39.732 202.795 39.732V39.734Z" fill="black"/>
<path id="Vector_6" d="M143.082 89.82C142.118 89.82 141.337 89.04 141.337 88.076V76.06C141.337 75.5972 141.521 75.1533 141.848 74.8261C142.175 74.4988 142.619 74.315 143.082 74.315C143.545 74.315 143.989 74.4988 144.316 74.8261C144.643 75.1533 144.827 75.5972 144.827 76.06V88.077C144.827 89.041 144.047 89.821 143.082 89.821V89.82ZM23.655 51.37C22.691 51.37 21.91 50.59 21.91 49.626V38.492C21.91 38.0292 22.0938 37.5853 22.4211 37.2581C22.7483 36.9308 23.1922 36.747 23.655 36.747C24.1178 36.747 24.5616 36.9308 24.8889 37.2581C25.2161 37.5853 25.4 38.0292 25.4 38.492V49.626C25.4 50.59 24.62 51.371 23.655 51.371V51.37ZM83.369 51.37C82.405 51.37 81.624 50.59 81.624 49.626V38.492C81.624 38.0293 81.8078 37.5856 82.1349 37.2584C82.4621 36.9313 82.9058 36.7475 83.3685 36.7475C83.8311 36.7475 84.2749 36.9313 84.602 37.2584C84.9292 37.5856 85.113 38.0293 85.113 38.492V49.626C85.1124 50.0888 84.9283 50.5325 84.6009 50.8596C84.2736 51.1868 83.8298 51.3707 83.367 51.371L83.369 51.37ZM143.082 51.37C142.118 51.37 141.337 50.59 141.337 49.626V38.492C141.337 38.0292 141.521 37.5853 141.848 37.2581C142.175 36.9308 142.619 36.747 143.082 36.747C143.545 36.747 143.989 36.9308 144.316 37.2581C144.643 37.5853 144.827 38.0292 144.827 38.492V49.626C144.827 50.59 144.047 51.371 143.082 51.371V51.37ZM114.105 38.933C113.141 38.933 112.36 38.153 112.36 37.188V27.923C112.36 27.4602 112.544 27.0163 112.871 26.6891C113.198 26.3618 113.642 26.178 114.105 26.178C114.568 26.178 115.012 26.3618 115.339 26.6891C115.666 27.0163 115.85 27.4602 115.85 27.923V37.188C115.85 38.153 115.07 38.933 114.105 38.933ZM202.795 51.37C201.831 51.37 201.05 50.59 201.05 49.626V38.492C201.05 38.0292 201.234 37.5853 201.561 37.2581C201.888 36.9308 202.332 36.747 202.795 36.747C203.258 36.747 203.702 36.9308 204.029 37.2581C204.356 37.5853 204.54 38.0292 204.54 38.492V49.626C204.54 50.59 203.76 51.371 202.795 51.371V51.37Z" fill="black"/>
</g>
</svg>
