<svg width="72" height="72" viewBox="0 0 72 72" fill="none" xmlns="http://www.w3.org/2000/svg">
<g id="Right">
<circle id="Ellipse 4" cx="36" cy="36" r="36" fill="#693CDE"/>
<path id="Vector" d="M31.6462 24.0003C31.9606 24.0015 32.2714 24.068 32.5601 24.1958C32.8488 24.3236 33.1094 24.5101 33.3263 24.744L42.333 34.3399C42.7605 34.7884 43 35.3913 43 36.0192C43 36.6472 42.7605 37.2501 42.333 37.6985L32.9996 47.2945C32.782 47.5182 32.5237 47.6956 32.2395 47.8166C31.9552 47.9377 31.6506 48 31.3429 48C31.0352 48 30.7306 47.9377 30.4463 47.8166C30.1621 47.6956 29.9038 47.5182 29.6862 47.2945C29.4687 47.0708 29.2961 46.8053 29.1783 46.513C29.0606 46.2208 29 45.9075 29 45.5912C29 45.2749 29.0606 44.9616 29.1783 44.6694C29.2961 44.3771 29.4687 44.1116 29.6862 43.8879L37.3863 35.9952L29.9662 28.0786C29.5316 27.6291 29.2877 27.0211 29.2877 26.3873C29.2877 25.7535 29.5316 25.1455 29.9662 24.696C30.187 24.4708 30.4494 24.2932 30.7379 24.1737C31.0264 24.0542 31.3352 23.9953 31.6462 24.0003Z" fill="white"/>
</g>
</svg>
