<svg width="136" height="116" viewBox="0 0 136 116" fill="none" xmlns="http://www.w3.org/2000/svg">
<path d="M2 2.69995H133.4V90.5H2V2.69995Z" fill="#C1A9FF"/>
<path d="M2 2.69995H133.4V90.5H2V2.69995Z" stroke="#1F1733" stroke-width="3.44"/>
<path d="M9.7 10.2999H125.6V83.0999H9.7V10.2999Z" fill="white"/>
<path d="M9.7 10.2999H125.6V83.0999H9.7V10.2999Z" stroke="#1F1733" stroke-width="3.44"/>
<path d="M42 113.3H95.6" stroke="#1F1733" stroke-width="3.44" stroke-linecap="round" stroke-linejoin="round"/>
<path d="M57.5 90.8L53.6 113.3H84.3L80.6 90.8H57.5Z" fill="white"/>
<path d="M57.5 90.8L53.6 113.3H84.3L80.6 90.8H57.5Z" stroke="#1F1733" stroke-width="3.44" stroke-linecap="round" stroke-linejoin="round"/>
<path d="M53.5 44.5V34L62 39.5L53.5 44.5Z" fill="#B2F9DA"/>
<path d="M39 34.3999L33.8 44.9999M53.3 33.8999L62.1 39.7999L53.3 45.5999V33.8999Z" stroke="#1F1733" stroke-width="3.44" stroke-linecap="round" stroke-linejoin="round"/>
<path d="M40.4 45.3999H47.8" stroke="#1F1733" stroke-width="3.44" stroke-linecap="round" stroke-linejoin="round"/>
<path d="M76.2 58C76.3 58 76.3 58 76.2 58L80.1 63.1V63.2L67.2 75.3H67.1L55.3 63.2V63.1L58.9 58H59H76.2Z" fill="#FFCE94"/>
<path d="M76.2 58C76.3 58 76.3 58 76.2 58L80.1 63.1V63.2L67.2 75.3H67.1L55.3 63.2V63.1L58.9 58H59H76.2Z" stroke="#1F1733" stroke-width="3.44"/>
<path d="M90.1 49.8C89.6 49.8 89.1 49.6 88.8 49.2C88.2 48.5 88.3 47.4 89 46.8C90.9 45.2 91.9 43.5 92.1 41.3C92.6 36.5 88.8 31.7 88.7 31.7C88.1 31 88.2 29.9 88.9 29.3C89.6 28.7 90.7 28.8 91.3 29.5C91.5 29.7 96.1 35.4 95.4 41.6C95.1 44.6 93.6 47.3 91 49.4C90.8 49.7 90.4 49.8 90.1 49.8ZM85.4 49.8C85 49.8 84.6 49.7 84.3 49.4C81.7 47.3 80.2 44.6 79.9 41.6C79.3 35.4 83.9 29.7 84.1 29.5C84.7 28.8 85.8 28.7 86.5 29.3C87.2 29.9 87.3 31 86.7 31.7C86.4 32.1 79.3 41 86.5 46.8C87.2 47.4 87.3 48.5 86.7 49.2C86.4 49.6 85.9 49.8 85.4 49.8ZM78 48.9C77 48.9 75.2 48.7 73.9 47.4C73.2 46.7 72.4 45.4 72.7 43.2C72.7 43.1 72.7 43 72.8 42.9C72.9 42.4 73 41.5 72.7 41.2C72.6 41.1 72.4 41 72.1 41C71.8 41 71.5 41 71.1 41C70.2 40.9 69.5 40.2 69.5 39.3C69.5 38.4 70.2 37.7 71.1 37.6C71.5 37.6 71.8 37.6 72.1 37.6C72.4 37.6 72.6 37.5 72.7 37.4C73 37.1 72.9 36.2 72.8 35.7C72.8 35.6 72.8 35.5 72.7 35.5C72.4 33.3 73.1 32.1 73.8 31.3C75.5 29.5 78.3 29.8 78.6 29.8C79.5 29.9 80.2 30.8 80.1 31.7C80 32.6 79.1 33.3 78.2 33.2C77.7 33.1 76.7 33.2 76.3 33.6C76.1 33.9 76 34.4 76.1 34.8C76.3 35.4 76.7 37.6 75.5 39.3C76.7 41 76.2 43.2 76.1 43.8C76.1 44.2 76.1 44.7 76.3 45C76.7 45.4 77.8 45.5 78.2 45.4C79.2 45.3 80 46 80.1 46.9C80.2 47.8 79.5 48.7 78.6 48.8C78.6 48.9 78.3 48.9 78 48.9ZM97.7 48.7C97.3 48.7 97.1 48.7 97 48.7C96.1 48.6 95.4 47.7 95.5 46.8C95.6 45.9 96.5 45.2 97.4 45.3C97.8 45.3 98.9 45.3 99.3 44.9C99.6 44.6 99.6 44.1 99.5 43.7C99.3 43.1 98.9 40.9 100.1 39.2C98.9 37.5 99.4 35.3 99.5 34.7C99.5 34.3 99.5 33.8 99.3 33.5C98.9 33.1 97.9 33 97.4 33.1C96.5 33.2 95.6 32.5 95.5 31.6C95.4 30.7 96.1 29.8 97 29.7C97.3 29.7 100.1 29.4 101.8 31.1C102.5 31.8 103.2 33.1 102.9 35.3C102.9 35.4 102.9 35.5 102.8 35.6C102.7 36.1 102.6 37 102.9 37.3C103 37.4 103.2 37.5 103.5 37.5C103.8 37.5 104.1 37.5 104.5 37.5C105.4 37.6 106.1 38.3 106.1 39.2C106.1 40.1 105.4 40.8 104.5 40.9C104.2 40.9 103.8 40.9 103.5 40.9C103.2 40.9 103 41 102.9 41.1C102.6 41.4 102.7 42.4 102.8 42.8C102.8 42.9 102.8 43 102.9 43.1C103.2 45.3 102.4 46.5 101.7 47.3C100.5 48.5 98.6 48.7 97.7 48.7Z" fill="#1F1733"/>
<path d="M28.2 33.7L19.4 39.5999L28.2 45.4" stroke="#1F1733" stroke-width="3.44" stroke-linecap="round" stroke-linejoin="round"/>
</svg>
