<svg width="48" height="48" viewBox="0 0 48 48" fill="none" xmlns="http://www.w3.org/2000/svg">
<rect x="-6.10352e-05" width="48" height="48" rx="24" fill="#FFF3E0"/>
<path d="M35.8207 13.5754H20.3499C20.4341 13.9124 20.4622 14.3055 20.4622 14.6705C20.4622 15.1197 20.406 15.5409 20.2937 15.962H34.5853V28.1197H15.8574V20.0614C15.5767 20.1175 15.324 20.1175 15.0432 20.1175C14.4816 20.1175 13.9481 20.0333 13.4427 19.8649V31.0959C13.4427 31.7417 13.9762 32.2752 14.622 32.2752H22.8769V34.4372H21.8661C20.6306 34.4372 19.6198 35.448 19.6198 36.6834C19.6198 37.0203 19.9006 37.273 20.2095 37.273H30.2613C30.5982 37.273 30.8509 36.9923 30.8509 36.6834C30.8509 35.448 29.8401 34.4372 28.6047 34.4372H27.5939V32.2752H35.8207C36.4665 32.2752 37 31.7417 37 31.0959V14.7547C37 14.1089 36.4665 13.5754 35.8207 13.5754ZM25.2354 31.0398C24.7862 31.0398 24.4211 30.6748 24.4211 30.2255C24.4211 29.7763 24.7862 29.3832 25.2354 29.3832C25.6846 29.3832 26.0777 29.7482 26.0777 30.2255C26.0496 30.6748 25.6846 31.0398 25.2354 31.0398Z" fill="#FFA825"/>
<path d="M19.0864 14.6704C19.0864 12.4242 17.2613 10.6272 15.0432 10.6272C12.797 10.6272 11 12.4522 11 14.6704C11 16.9166 12.8251 18.7136 15.0432 18.7136C17.2894 18.7417 19.0864 16.9166 19.0864 14.6704ZM13.8359 16.1304V13.2384C13.8359 13.0138 14.0605 12.9015 14.257 13.0138L16.5875 14.4738C16.7559 14.5862 16.7559 14.8389 16.5875 14.9231L14.257 16.3831C14.0605 16.4674 13.8359 16.3551 13.8359 16.1304Z" fill="#FFA825"/>
<path d="M19.9287 25.9014H30.5421C30.9352 25.9014 31.244 25.5926 31.244 25.1995C31.244 24.8064 30.9352 24.4976 30.5421 24.4976H19.9287C19.5356 24.4976 19.2267 24.8064 19.2267 25.1995C19.2267 25.5926 19.5356 25.9014 19.9287 25.9014Z" fill="#FFA825"/>
<path d="M19.9287 22.7567H30.5421C30.9352 22.7567 31.244 22.4478 31.244 22.0547C31.244 21.6616 30.9352 21.3528 30.5421 21.3528H19.9287C19.5356 21.3528 19.2267 21.6616 19.2267 22.0547C19.2267 22.4478 19.5356 22.7567 19.9287 22.7567Z" fill="#FFA825"/>
<path d="M19.9287 19.6121H30.5421C30.9352 19.6121 31.244 19.3033 31.244 18.9102C31.244 18.5171 30.9352 18.2083 30.5421 18.2083H19.9287C19.5356 18.2083 19.2267 18.5171 19.2267 18.9102C19.2267 19.3033 19.5356 19.6121 19.9287 19.6121Z" fill="#FFA825"/>
</svg>
