<svg width="48" height="48" viewBox="0 0 48 48" fill="none" xmlns="http://www.w3.org/2000/svg">
<rect width="48" height="48" rx="24" fill="#CDFBE7"/>
<path d="M19.9509 16.749C19.8639 16.7641 19.792 16.8318 19.7369 16.9384C19.6524 17.1013 19.6093 17.3553 19.6168 17.6528C19.62 17.7946 19.6345 17.9456 19.6625 18.1019C19.7025 18.3266 19.7646 18.5318 19.8393 18.7073C19.977 19.0319 20.1586 19.2509 20.3325 19.2755C20.6713 20.1882 21.2086 21.0754 21.873 21.723C22.248 22.0908 22.665 22.3813 23.1087 22.5581C23.4141 22.6782 23.7327 22.7463 24.0608 22.7463C24.3879 22.7463 24.7062 22.6795 25.0116 22.5581C25.4711 22.375 25.9016 22.0706 26.2873 21.6849C26.9356 21.0382 27.4606 20.1646 27.7915 19.268C28.0481 19.1926 28.3163 18.7136 28.4256 18.1013C28.5435 17.4369 28.4322 16.8574 28.1757 16.7616C28.1848 16.5989 28.1911 16.4347 28.1902 16.2674C28.1896 16.0405 28.1729 15.8237 28.1473 15.6116L26.9167 16.1445H26.9164L26.8032 16.1937L24.9315 17.0042C24.6971 17.1057 24.397 17.1618 24.086 17.1618C23.7752 17.1618 23.4749 17.1057 23.2401 17.0042L21.3728 16.1955L21.3687 16.194L21.2499 16.1426L21.2496 16.1423L20.0914 15.6412C20.0861 15.691 20.0807 15.7414 20.0769 15.7896C20.0019 16.0947 19.9584 16.4121 19.9584 16.7404H19.966C19.966 16.7433 19.9657 16.7458 19.9651 16.748C19.9597 16.7477 19.9562 16.748 19.9509 16.749Z" fill="#0DCC7C"/>
<path d="M31.7791 26.9157C31.8749 26.9157 31.9682 26.9255 32.0586 26.9441C32.0861 26.731 32.0772 26.5117 32.0158 26.2993C31.735 25.328 31.3808 24.6605 31.0164 24.1903C30.308 23.2751 29.5623 23.1276 29.245 23.0671C29.2059 23.0602 29.1734 23.0539 29.147 23.0476C28.793 22.9647 28.3862 22.9407 28.0275 22.9199C27.7392 22.9029 27.4641 22.8878 27.2397 22.843C26.979 23.5326 25.6979 24.034 24.1209 24.034C22.5423 24.034 21.2628 23.5326 21.0022 22.843C20.7769 22.8881 20.5014 22.9038 20.2134 22.9205C19.8547 22.9404 19.4482 22.9647 19.0946 23.0476C19.0678 23.0535 19.0353 23.0598 18.9962 23.0671C18.6965 23.1251 18.0158 23.2559 17.3436 24.04C16.9383 24.513 16.5368 25.2224 16.2239 26.2977C16.157 26.5284 16.1504 26.7695 16.1892 27.0002C16.337 26.9466 16.4955 26.9157 16.6613 26.9157H31.7791Z" fill="#0DCC7C"/>
<path d="M29.7319 12.1049L24.7046 9.92873C24.5344 9.85499 24.3104 9.81812 24.086 9.81812C23.8619 9.81812 23.6375 9.85499 23.467 9.92873L18.4397 12.1049C18.099 12.2523 18.099 12.4931 18.4397 12.6403L18.8204 12.8051L18.7883 13.061C18.6424 13.0862 18.5311 13.2129 18.5311 13.3661C18.5311 13.5038 18.6209 13.6207 18.7457 13.6601L18.7265 13.9299L18.5144 16.8996C18.5049 17.0345 18.5321 17.2506 18.5746 17.3789L18.7624 17.9421C18.7839 18.0064 18.8119 18.0385 18.8403 18.0385C18.8683 18.0385 18.8967 18.0064 18.9181 17.9421L19.1063 17.3789C19.1491 17.2506 19.1762 17.0345 19.1665 16.8996L18.9553 13.9375L18.9354 13.6598C19.0593 13.6201 19.1497 13.5035 19.1497 13.3658C19.1497 13.2126 19.0385 13.0859 18.8923 13.0607L18.8626 12.8231L19.7419 13.2038L20.173 13.3904V14.3226V15.0531L20.1743 15.0534L21.1951 15.4953L21.5963 15.6689L21.8229 15.7672L21.8235 15.7675L23.4676 16.4795C23.6381 16.5529 23.8622 16.5901 24.0866 16.5901C24.311 16.5901 24.5351 16.5529 24.7052 16.4795L26.0484 15.898L26.3866 15.7515L26.5769 15.6689L28.0005 15.0528V14.8555V13.39L28.431 13.2035L29.7325 12.6397C30.0723 12.4931 30.0723 12.2523 29.7319 12.1049Z" fill="#0DCC7C"/>
<path d="M31.359 37.8961C31.359 37.7385 31.2317 37.6106 31.0734 37.6106H17.3672C17.2096 37.6106 17.0817 37.7385 17.0817 37.8961C17.0817 38.0537 17.2093 38.1816 17.3672 38.1816H31.0734C31.2317 38.1816 31.359 38.0537 31.359 37.8961Z" fill="#0DCC7C"/>
<path d="M32.0586 27.3248C31.9682 27.3062 31.8749 27.2964 31.7791 27.2964H16.6613C16.4955 27.2964 16.337 27.3276 16.1892 27.3812C15.6556 27.5747 15.2727 28.0852 15.2727 28.6853V28.718L15.2784 28.7502L16.533 36.028C16.5516 36.7774 17.1671 37.3812 17.9212 37.3812H30.5194C31.2736 37.3812 31.8891 36.7774 31.9077 36.028L33.1623 28.7502L33.168 28.718V28.6853C33.1683 28.0146 32.6911 27.4543 32.0586 27.3248ZM24.2205 32.8103C23.8905 32.8103 23.6226 32.543 23.6226 32.2124C23.6226 31.8828 23.8905 31.6155 24.2205 31.6155C24.5505 31.6155 24.8177 31.8828 24.8177 32.2124C24.818 32.543 24.5508 32.8103 24.2205 32.8103Z" fill="#0DCC7C"/>
</svg>
